<svg width="50" height="50" viewBox="0 0 50 50" fill="none" xmlns="http://www.w3.org/2000/svg">
<path fill-rule="evenodd" clip-rule="evenodd" d="M14.3246 44.1837C16.3386 44.1837 17.9763 42.7189 17.9763 40.9151C17.9763 40.2709 17.7661 39.6708 17.4033 39.1622H17.5016C15.8979 37.4093 16.0674 35.9751 17.7661 35.4733H23.3842C24.0183 35.4733 24.537 34.9545 24.537 34.3205V29.333C24.9303 25.9288 26.3849 26.9392 28.0971 27.9937C32.2336 30.54 34.9834 24.5082 31.6403 22.4433C29.016 20.8227 27.8801 23.6097 25.9577 23.3215C25.2151 23.2096 24.6998 22.406 24.537 21.1854V16.2556C24.537 15.6215 24.0183 15.1028 23.3842 15.1028H18.4645C16.1352 14.8078 15.6944 13.2413 17.4982 11.2714H17.3999C17.7627 10.7628 17.9729 10.1627 17.9729 9.51851C17.9763 7.71472 16.342 6.25 14.3246 6.25C12.3106 6.25 10.6764 7.71472 10.6764 9.51851C10.6764 10.1627 10.8866 10.7628 11.2494 11.2714H11.2257C13.0294 13.2413 12.5921 14.8112 10.2594 15.1028H5.3193C4.68526 15.1028 4.1665 15.6215 4.1665 16.2556V21.3957C4.53608 23.5114 6.06183 23.8572 7.96055 22.1178V22.1416C8.46913 21.7788 9.06926 21.5686 9.71347 21.5686C11.5173 21.5686 12.982 23.2028 12.982 25.2168C12.982 27.2308 11.5173 28.8651 9.71347 28.8651C9.06926 28.8651 8.46913 28.6549 7.96055 28.2921V28.3904C6.06183 26.651 4.53608 27.0003 4.1665 29.116V34.3239C4.1665 34.9579 4.68526 35.4767 5.3193 35.4767H10.9578C12.6565 35.9785 12.8294 37.4127 11.2223 39.1656H11.246C10.8866 39.6742 10.673 40.2743 10.673 40.9185C10.6764 42.7223 12.3106 44.187 14.3246 44.1837ZM35.6716 44.3701H35.6649C33.6509 44.3701 32.0132 42.9054 32.0132 41.1016C32.0132 40.4574 32.2234 39.8573 32.5862 39.3487H32.5625C34.1662 37.5958 33.9967 36.1616 32.298 35.6598H26.6595C26.0255 35.6598 25.5067 35.141 25.5067 34.507V29.3092C25.778 28.5226 26.1238 28.2446 26.5307 28.2344C26.7172 28.231 26.9138 28.2819 27.124 28.3701C27.714 28.6142 28.4057 29.1261 29.1584 29.4177C32.0607 30.5366 34.5528 27.7123 34.3866 24.81C34.3493 24.1624 34.0882 23.5249 33.7017 22.935C32.22 20.6701 30.0263 20.4565 27.9106 21.7483C26.8324 22.4094 25.9746 22.9079 25.483 21.3516L25.5101 16.4387C25.5135 15.8046 26.0289 15.2859 26.6629 15.2859H31.5996C33.9289 14.9909 34.3697 13.4244 32.5659 11.4545H32.5896C32.2268 10.9459 32.0166 10.3458 32.0166 9.7016C32.0166 7.89781 33.6509 6.43309 35.6683 6.43309H35.675C37.689 6.43309 39.3267 7.89781 39.3267 9.7016C39.3267 10.3458 39.1165 10.9459 38.7537 11.4545H38.7774C36.9736 13.4244 37.411 14.9943 39.7437 15.2859H44.6804C45.3144 15.2859 45.8332 15.8046 45.8332 16.4387V21.5787C45.4636 23.6945 43.9378 24.0403 42.0391 22.3009V22.3247C41.5305 21.9619 40.9304 21.7517 40.2862 21.7517C38.4824 21.7517 37.0177 23.3859 37.0177 25.3999C37.0177 27.4139 38.4824 29.0516 40.2862 29.0516C40.9304 29.0516 41.5305 28.8413 42.0391 28.4785V28.5769C43.9412 26.8375 45.4636 27.1867 45.8332 29.3025V34.5002C45.8332 35.1342 45.3144 35.653 44.6804 35.653H39.0419C37.3432 36.1548 37.1737 37.589 38.7774 39.3419H38.7503C39.1131 39.8505 39.3233 40.4506 39.3233 41.0948C39.3199 42.9054 37.6856 44.3701 35.6716 44.3701Z" fill="white"/>
</svg>
