<svg width="50" height="50" viewBox="0 0 50 50" fill="none" xmlns="http://www.w3.org/2000/svg">
<path d="M8.19906 40.3039L12.8703 36.23C13.0845 36.0437 13.3609 35.9403 13.6475 35.9393H24.9593C25.0092 35.9398 25.0586 35.9306 25.1048 35.9122C25.1509 35.8938 25.1929 35.8665 25.2281 35.832C25.2634 35.7975 25.2912 35.7565 25.31 35.7113C25.3289 35.6661 25.3383 35.6177 25.3377 35.569V33.2433H27.6693V35.569C27.6661 36.2735 27.3787 36.9483 26.8696 37.4465C26.3606 37.9447 25.6711 38.226 24.9512 38.2291H14.0869L7.85319 43.6649C7.69061 43.8242 7.48359 43.9329 7.25812 43.9774C7.03266 44.0219 6.79877 44.0003 6.58581 43.9152C6.37286 43.8302 6.19031 43.6855 6.06107 43.4992C5.93184 43.313 5.86167 43.0936 5.85938 42.8685V38.2291H2.72217C2.00157 38.227 1.31103 37.9462 0.801105 37.4479C0.29118 36.9496 0.0032186 36.2742 0 35.569L0 18.3854C0.00847092 17.6817 0.298117 17.0093 0.806911 16.5121C1.31571 16.0149 2.0032 15.7324 2.72217 15.7252H17.6392V18.015H2.72217C2.62328 18.0206 2.52987 18.0613 2.45945 18.1295C2.38904 18.1977 2.34645 18.2887 2.33968 18.3854V35.569C2.34004 35.6174 2.35031 35.6652 2.36988 35.7097C2.38945 35.7541 2.41792 35.7943 2.45361 35.8278C2.52597 35.8962 2.62165 35.9359 2.72217 35.9393H7.02718C7.33798 35.9393 7.63605 36.0601 7.85582 36.2752C8.07559 36.4903 8.19906 36.782 8.19906 37.0862V40.3039ZM8.28451 32.5464L12.0443 21.4318H15.6372L19.397 32.5464H16.4185L15.7878 30.5234H11.8612L11.2467 32.5464H8.28451ZM12.5285 28.2017H15.1204L13.8346 23.65L12.5285 28.2017ZM31.1808 12.3164H34.7209V11.4243C34.7209 11.3514 34.7504 11.2816 34.8031 11.23C34.8558 11.1785 34.9272 11.1495 35.0016 11.1495H36.8937C36.9304 11.1495 36.9667 11.1567 37.0006 11.1705C37.0344 11.1844 37.0651 11.2047 37.0908 11.2303C37.1166 11.2558 37.1369 11.2862 37.1505 11.3195C37.1642 11.3528 37.171 11.3884 37.1704 11.4243V12.3164H41.1418C41.1784 12.3164 41.2148 12.3235 41.2486 12.3373C41.2824 12.3512 41.3131 12.3715 41.3389 12.3971C41.3646 12.4226 41.3849 12.453 41.3986 12.4863C41.4122 12.5196 41.419 12.5552 41.4185 12.5911V14.3672C41.4185 14.4391 41.3893 14.5079 41.3374 14.5587C41.2855 14.6095 41.2151 14.638 41.1418 14.638H40.5111C40.4277 15.1615 40.304 15.678 40.1408 16.1832V16.2071C39.9539 16.7769 39.717 17.3298 39.4328 17.8597C39.1719 18.3323 38.8811 18.7885 38.562 19.2256C38.2894 19.6239 37.9883 19.9823 37.6668 20.3526C38.1267 20.8966 38.6272 21.4064 39.1642 21.8778C39.8149 22.4252 40.5073 22.9231 41.2354 23.3672C41.2661 23.3863 41.2927 23.4111 41.3137 23.4402C41.3347 23.4693 41.3495 23.5022 41.3575 23.537C41.3654 23.5718 41.3663 23.6078 41.36 23.6429C41.3537 23.678 41.3404 23.7115 41.3208 23.7415L40.3483 25.2269C40.3282 25.2597 40.3013 25.288 40.2693 25.31C40.2374 25.332 40.2011 25.3472 40.1628 25.3547C40.1245 25.3622 40.0851 25.3618 40.0469 25.3535C40.0088 25.3452 39.9729 25.3292 39.9414 25.3066C39.1439 24.8216 38.3849 24.2785 37.6709 23.6818C37.0905 23.175 36.5467 22.6294 36.0433 22.0491C35.5225 22.5031 35.0545 22.9292 34.5866 23.3274C34.0332 23.7734 33.4513 24.2035 32.7677 24.6654C32.737 24.6886 32.7018 24.7053 32.6642 24.7145C32.6265 24.7237 32.5874 24.7252 32.5491 24.7188C32.5109 24.7125 32.4744 24.6984 32.442 24.6776C32.4096 24.6567 32.382 24.6296 32.3608 24.5977L31.3314 23.1402C31.3077 23.1102 31.2906 23.0757 31.2812 23.0388C31.2718 23.002 31.2704 22.9637 31.2768 22.9263C31.2833 22.8889 31.2977 22.8532 31.319 22.8215C31.3403 22.7897 31.368 22.7627 31.4006 22.742C32.076 22.288 32.6213 21.8699 33.1746 21.4358C33.6466 21.0376 34.1024 20.6393 34.5947 20.1774C34.184 19.6087 33.8077 19.017 33.4676 18.4053C33.0799 17.6775 32.7729 16.9112 32.5521 16.1194C32.5422 16.0852 32.5392 16.0494 32.5435 16.014C32.5477 15.9786 32.5591 15.9444 32.5768 15.9134C32.5946 15.8823 32.6184 15.855 32.647 15.8329C32.6756 15.8109 32.7083 15.7946 32.7433 15.7849L34.4808 15.311C34.5158 15.3013 34.5524 15.2985 34.5885 15.3026C34.6247 15.3068 34.6596 15.3179 34.6914 15.3353C34.7231 15.3526 34.751 15.376 34.7736 15.4039C34.7961 15.4319 34.8127 15.4639 34.8226 15.4982C35.1021 16.5493 35.5736 17.5423 36.2142 18.4292L36.731 17.7522C36.954 17.4356 37.1592 17.1072 37.3454 16.7686C37.5427 16.3961 37.7087 16.0085 37.8418 15.6097C37.9487 15.2907 38.0383 14.9663 38.1104 14.638H31.193C31.1193 14.638 31.0485 14.6096 30.9959 14.559C30.9434 14.5083 30.9133 14.4394 30.9123 14.3672V12.5752C30.9123 12.5023 30.9419 12.4324 30.9945 12.3809C31.0472 12.3294 31.1186 12.3004 31.193 12.3004L31.1808 12.3164ZM42.1672 34.9437L35.9131 29.5039H25.0407C24.3207 29.4998 23.6314 29.2183 23.122 28.7204C22.6125 28.2225 22.3239 27.5483 22.3185 26.8438V9.66415C22.3249 8.95689 22.6176 8.28096 23.1323 7.78451L23.2137 7.71283C23.7102 7.26002 24.3621 7.00569 25.0407 7H47.2778C47.9993 7.00644 48.6886 7.29291 49.1943 7.79646L49.2716 7.8761C49.7355 8.36447 49.9954 9.00534 50 9.67212V26.8438C49.9947 27.5483 49.706 28.2225 49.1966 28.7204C48.6871 29.2183 47.9978 29.4998 47.2778 29.5039H44.1447V34.1313C44.1413 34.3564 44.0703 34.5755 43.9405 34.7614C43.8108 34.9472 43.628 35.0916 43.415 35.1765C43.202 35.2615 42.9682 35.2831 42.7427 35.2389C42.5172 35.1947 42.3099 35.0865 42.1468 34.9278L42.1672 34.9437ZM37.1338 27.5048L41.8009 31.5787V28.361C41.8009 28.0568 41.9244 27.7651 42.1442 27.55C42.3639 27.3349 42.662 27.2141 42.9728 27.2141H47.2778C47.3273 27.2135 47.3761 27.2034 47.4215 27.1842C47.4669 27.1651 47.5079 27.1374 47.5423 27.1026C47.5788 27.0694 47.608 27.0294 47.6283 26.9849C47.6485 26.9405 47.6594 26.8924 47.6603 26.8438V9.66415C47.6562 9.57982 47.6249 9.49894 47.5708 9.43318L47.5423 9.38937C47.4716 9.32044 47.3775 9.27934 47.2778 9.27389H25.0407C24.9563 9.28728 24.879 9.32793 24.821 9.38937H24.7762C24.7407 9.42302 24.7123 9.46322 24.6928 9.50765C24.6732 9.55207 24.6629 9.59985 24.6623 9.64822V26.8438C24.6617 26.8925 24.6711 26.9409 24.69 26.9861C24.7088 27.0313 24.7366 27.0723 24.7719 27.1068C24.8071 27.1413 24.8491 27.1686 24.8952 27.187C24.9414 27.2054 24.9908 27.2146 25.0407 27.2141H36.3566C36.6434 27.214 36.9202 27.3175 37.1338 27.5048Z" fill="#1A1F36"/>
</svg>
