<svg width="50" height="50" viewBox="0 0 50 50" fill="none" xmlns="http://www.w3.org/2000/svg">
<rect width="50" height="50" fill="white"/>
<path d="M20.4078 26.2503H25.1839C25.7894 26.2503 26.0909 26.9911 25.6679 27.4245C25.5743 27.521 25.4456 27.5754 25.3112 27.5754H20.4078C20.01 27.5754 19.6478 27.741 19.3854 28.0068C19.1222 28.2736 18.9597 28.6407 18.9597 29.0438V35.2886C18.9597 35.6789 19.1112 36.034 19.3575 36.2981L19.3854 36.3247C19.6486 36.5915 20.0109 36.757 20.4078 36.757H21.5377V36.7596H25.2718L25.2735 36.757H28.9255C29.3225 36.757 29.6847 36.5915 29.9479 36.3256C30.2103 36.0588 30.3736 35.6918 30.3736 35.2886V30.0585C30.3736 29.8639 30.4417 29.6754 30.5667 29.5263C30.749 29.3086 30.932 29.092 31.1152 28.8767C31.3154 28.6415 31.6821 28.7349 31.6821 29.0438V35.2886C31.6821 36.0546 31.3715 36.7527 30.8721 37.2588L30.8696 37.2613C30.3694 37.7674 29.6805 38.083 28.9255 38.083H20.4078C19.6503 38.083 18.9605 37.7682 18.4604 37.2613L18.424 37.221C17.9466 36.7184 17.6512 36.0365 17.6512 35.2886V29.0438C17.6512 28.2744 17.961 27.5754 18.4604 27.0702C18.9597 26.5642 19.6486 26.2503 20.4078 26.2503ZM6.81875 17.6699C6.58092 17.2865 6.13574 16.7659 6.13574 16.3165C6.13574 16.0626 6.33294 15.7316 6.61563 15.6578C6.59277 15.2778 6.57839 14.8919 6.57839 14.5102C6.57839 14.2846 6.58262 14.0565 6.59108 13.8326C6.60293 13.6911 6.62917 13.5504 6.66641 13.4141C6.83991 12.8394 7.21908 12.3514 7.72858 12.0452C7.9097 11.9303 8.10521 11.8402 8.30579 11.7664C8.67142 11.6309 8.49453 11.0082 8.89486 11.0005C9.83008 10.9756 11.3688 11.8436 11.9688 12.5015C12.351 12.9299 12.5685 13.4833 12.5816 14.0608L12.5435 15.7213C12.7102 15.7624 12.8956 15.8937 12.937 16.0626C13.0648 16.5867 12.5283 17.2394 12.2786 17.6562C12.1339 17.8981 11.731 18.4822 11.4534 18.8827C11.2689 19.1486 11.0801 19.2344 11.2477 19.4882C11.8415 20.3153 12.8312 20.5256 13.76 20.8104C15.96 21.485 14.2048 23.8127 11.9036 23.8127H7.16667C4.86548 23.8127 3.10922 21.484 5.30949 20.81C6.23867 20.5253 7.22884 20.3157 7.82253 19.4882C8.00619 19.2146 7.853 19.1812 7.64395 18.8767C7.33757 18.429 6.87884 17.766 6.81875 17.6699ZM37.0818 17.6699C36.844 17.2865 36.3988 16.7659 36.3988 16.3165C36.3988 16.0626 36.596 15.7316 36.8787 15.6578C36.8559 15.2778 36.8415 14.8919 36.8415 14.5102C36.8415 14.2846 36.8457 14.0565 36.8542 13.8326C36.866 13.6911 36.8923 13.5504 36.9295 13.4141C37.103 12.8394 37.4822 12.3514 37.9925 12.0452C38.1728 11.9303 38.3683 11.8402 38.5697 11.7664C38.9345 11.6309 38.7576 11.0082 39.1579 11.0005C40.094 10.9756 41.6318 11.8436 42.2319 12.5015C42.6144 12.9297 42.832 13.4833 42.8447 14.0608L42.8066 15.7213C42.9733 15.7624 43.1595 15.8937 43.2001 16.0626C43.3279 16.5867 42.7913 17.2394 42.5417 17.6562C42.3969 17.8981 41.9941 18.4822 41.7165 18.8827C41.532 19.1486 41.3432 19.2344 41.5108 19.4882C42.1046 20.3153 43.0943 20.5256 44.023 20.8104C46.2231 21.485 44.4679 23.8127 42.1667 23.8127H37.4298C35.1286 23.8127 33.3724 21.484 35.5727 20.81C36.502 20.5254 37.4922 20.3158 38.0856 19.4882C38.2693 19.2146 38.1161 19.1812 37.907 18.8767C37.6007 18.429 37.1419 17.766 37.0818 17.6699ZM21.9499 17.6699C21.7129 17.2865 21.2669 16.7659 21.2669 16.3165C21.2669 16.0626 21.4649 15.7316 21.7467 15.6578C21.7247 15.2778 21.7104 14.8919 21.7104 14.5102C21.7104 14.2846 21.7146 14.0565 21.7222 13.8326C21.7349 13.6911 21.7603 13.5504 21.7975 13.4141C21.971 12.8394 22.351 12.3514 22.8605 12.0452C23.0417 11.9303 23.2372 11.8402 23.4378 11.7664C23.8025 11.6309 23.6257 11.0082 24.026 11.0005C24.962 10.9756 26.4999 11.8436 27.0999 12.5015C27.4827 12.9296 27.7005 13.4832 27.7135 14.0608L27.6755 15.7213C27.8422 15.7624 28.0275 15.8937 28.069 16.0626C28.1968 16.5867 27.6602 17.2394 27.4105 17.6562C27.265 17.8981 26.863 18.4822 26.5845 18.8827C26.4 19.1486 26.2121 19.2344 26.3788 19.4882C26.9727 20.3153 27.9623 20.5256 28.8911 20.8104C31.0912 21.485 29.3359 23.8127 27.0347 23.8127H22.2986C19.9974 23.8127 18.2412 21.484 20.4415 20.81C21.3706 20.5253 22.3608 20.3157 22.9545 19.4882C23.1373 19.2146 22.985 19.1812 22.7759 18.8767C22.4695 18.429 22.01 17.766 21.9499 17.6699ZM6.05872 26.2503H13.0107C13.7673 26.2503 14.4563 26.5651 14.9564 27.072C15.4575 27.5771 15.7681 28.2762 15.7681 29.0438V35.2886C15.7681 36.0563 15.4566 36.7544 14.9564 37.2613L14.9167 37.2982C14.419 37.7828 13.7462 38.083 13.0107 38.083H6.05872C5.30462 38.083 4.614 37.7674 4.1138 37.2605C3.61276 36.7562 3.30215 36.0571 3.30215 35.2886V29.0438C3.30215 28.2744 3.61276 27.5754 4.11126 27.0702C4.61061 26.5642 5.30039 26.2503 6.05872 26.2503ZM13.0107 27.5754H6.05872C5.66094 27.5754 5.2987 27.741 5.03633 28.0068C4.77396 28.2736 4.61061 28.6407 4.61061 29.0438V35.2886C4.61061 35.6909 4.7748 36.058 5.03717 36.3239V36.3265C5.2987 36.5923 5.66094 36.757 6.05872 36.757H13.0107C13.3949 36.757 13.7453 36.6026 14.0051 36.353L14.0322 36.3239C14.2954 36.0571 14.4596 35.69 14.4596 35.2886V29.0438C14.4596 28.6415 14.2954 28.2744 14.0322 28.0077V28.0051C13.8982 27.8689 13.739 27.7609 13.5637 27.6872C13.3884 27.6134 13.2005 27.5755 13.0107 27.5754ZM36.3227 26.2503H43.2746C44.0312 26.2503 44.7193 26.5651 45.2195 27.072C45.7206 27.5771 46.0312 28.2762 46.0312 29.0438V35.2886C46.0312 36.0563 45.7197 36.7544 45.2204 37.2613L45.1798 37.2982C44.6829 37.7828 44.0092 38.083 43.2746 38.083H36.3227C35.5669 38.083 34.8779 37.7682 34.3777 37.2613H34.3752C33.8767 36.7562 33.5652 36.0571 33.5652 35.2886V29.0438C33.5652 28.2744 33.8758 27.5754 34.3752 27.0702L34.415 27.0325C34.9109 26.5488 35.5838 26.2503 36.3227 26.2503ZM43.2746 27.5754H36.3227C35.9376 27.5754 35.5863 27.7298 35.3257 27.9794L35.2994 28.0068C35.037 28.2736 34.8737 28.6407 34.8737 29.0438V35.2886C34.8737 35.6909 35.0379 36.058 35.3003 36.3239C35.5626 36.5915 35.9249 36.757 36.3227 36.757H43.2746C43.658 36.757 44.0092 36.6026 44.2682 36.353L44.2953 36.3239C44.5585 36.0571 44.7227 35.69 44.7227 35.2886V29.0438C44.7227 28.6415 44.5594 28.2744 44.2962 28.0077V28.0051C44.0346 27.741 43.6732 27.5754 43.2746 27.5754ZM22.8225 30.507C23.4564 30.8767 23.8694 31.1846 24.3611 31.7344C25.6366 29.6536 26.5904 28.8861 28.3906 27.2497L28.7594 26.9311C28.9022 26.8079 29.0845 26.74 29.2731 26.74C29.9512 26.74 30.3116 27.542 29.8679 28.0547C27.7868 30.459 26.1191 32.6292 24.4441 35.6712C23.2583 33.6453 22.4594 32.3408 20.7354 30.9847L22.8225 30.507Z" fill="#1A1F36"/>
</svg>
