<svg width="50" height="50" viewBox="0 0 50 50" fill="none" xmlns="http://www.w3.org/2000/svg">
<rect width="50" height="50" fill="white"/>
<g clip-path="url(#clip0_511_56)">
<path d="M22.0098 10.3212C23.6448 10.3212 25.2189 10.5582 26.7064 10.997C26.9436 11.0675 27.1841 11.1443 27.4277 11.2276C27.8566 11.3755 28.0353 11.8754 27.8183 12.2737L27.6169 12.6433C27.3453 13.1419 26.7477 13.3574 26.2047 13.1915C24.8787 12.7864 23.4719 12.5695 22.013 12.5695H22.0098C20.0349 12.5695 18.1531 12.9699 16.4412 13.6937C16.1622 13.8122 15.8865 13.9371 15.6204 14.0716C14.2355 14.7634 12.9788 15.673 11.8952 16.7555L11.8888 16.7619C11.5297 17.1206 11.1867 17.5017 10.8693 17.8988C10.5487 18.2992 10.2474 18.7155 9.96848 19.1479C8.52903 21.377 7.69871 24.0256 7.69871 26.8664V26.8696C7.69871 28.8425 8.09945 30.7225 8.82398 32.4327C8.94259 32.7114 9.06762 32.9868 9.20227 33.2526C9.89474 34.633 10.8052 35.8917 11.892 36.9742L11.8984 36.9806C12.2575 37.3393 12.639 37.682 13.0365 38.0023C13.4372 38.3225 13.854 38.6236 14.2868 38.9022C16.5149 40.3306 19.1662 41.1601 22.0098 41.1601H22.013C23.9878 41.1601 25.8696 40.7598 27.5816 40.036C27.8605 39.9175 28.1362 39.7926 28.4023 39.6581C29.7872 38.9663 31.0439 38.0567 32.1275 36.9742H32.1307L32.1404 36.9646C32.4994 36.6059 32.8392 36.228 33.1598 35.8308C33.4804 35.4305 33.7818 35.0141 34.0607 34.5818C35.3246 32.6169 36.1201 30.3217 36.2877 27.8554C36.3259 27.2929 36.7322 26.8127 37.2894 26.727L37.5478 26.6872C38.0897 26.6038 38.5571 27.0142 38.5571 27.5624C38.5571 29.8459 38.1065 31.331 37.2698 33.3071C37.1351 33.6274 36.9876 33.9444 36.8306 34.2583C36.0291 35.8596 34.9744 37.3137 33.7209 38.5659L33.7144 38.5723C33.2977 38.9887 32.8553 39.3858 32.3968 39.7541C31.9352 40.1257 31.4511 40.4748 30.951 40.795C28.3734 42.4508 25.3054 43.4116 22.013 43.4116C19.7272 43.4116 17.5472 42.9472 15.5692 42.1113C15.2486 41.9768 14.9312 41.8295 14.617 41.6726C13.0141 40.8719 11.5586 39.8182 10.3051 38.5659L10.2987 38.5563C9.88192 38.14 9.48759 37.7012 9.11571 37.24C8.74383 36.7788 8.39439 36.2952 8.0738 35.7956C6.40995 33.2206 5.44818 30.1556 5.44818 26.8664V26.8632C5.44818 24.5797 5.91303 22.4051 6.74977 20.4258C6.88442 20.1055 7.03189 19.7884 7.18898 19.4746C7.99045 17.8732 9.04518 16.4192 10.2987 15.1669L10.3051 15.1605C10.7219 14.7442 11.1643 14.3502 11.6227 13.9787C12.0844 13.6072 12.5684 13.2581 13.0686 12.9378C15.6493 11.282 18.7173 10.3212 22.0098 10.3212ZM23.3626 26.1202L33.7561 7.05127L35.0994 17.8796L44.8421 22.8086L23.3626 26.1202ZM22.0098 21.63H22.013C22.3412 21.63 22.5236 21.9852 22.3666 22.2734L21.7687 23.3714C21.5766 23.7242 21.2272 23.9548 20.8569 24.1107C20.8533 24.1122 20.8497 24.1138 20.846 24.1153C20.7883 24.1409 20.7306 24.1666 20.6729 24.1954C20.3844 24.3395 20.1215 24.5285 19.8939 24.7558L19.8875 24.7623C19.8137 24.8359 19.7464 24.9128 19.6791 24.9929C19.6118 25.0761 19.5477 25.1626 19.4899 25.2555C19.1918 25.7199 19.0187 26.2739 19.0187 26.8664V26.8696C19.0187 27.2828 19.102 27.6735 19.2559 28.0322C19.2816 28.0931 19.3072 28.1507 19.3361 28.2052C19.4803 28.4934 19.6695 28.756 19.8971 28.9834L19.9035 28.9898C19.9772 29.0635 20.0542 29.134 20.1343 29.198C20.2177 29.2653 20.3042 29.3293 20.3972 29.387C20.8621 29.6848 21.4167 29.8578 22.0098 29.8578C22.4233 29.8578 22.8144 29.7745 23.1735 29.624C23.2344 29.5983 23.2889 29.5727 23.3466 29.5439C23.6352 29.3998 23.898 29.2108 24.1256 28.9834L24.1321 28.977C24.1737 28.9354 24.2122 28.8938 24.2475 28.8553C24.3197 28.7766 24.412 28.7181 24.5175 28.7018L26.4212 28.4079C26.7152 28.3625 26.9562 28.6368 26.8378 28.9098C26.7962 29.009 26.7481 29.1115 26.7 29.2108C26.4467 29.7201 26.1133 30.178 25.7158 30.5752L25.7062 30.5816C25.5747 30.7097 25.4401 30.8346 25.2958 30.9499C25.1483 31.0684 24.9977 31.1773 24.8374 31.2798C24.0199 31.8018 23.0517 32.1061 22.0098 32.1061C21.2852 32.1061 20.596 31.9587 19.9708 31.6929C19.8714 31.6513 19.7689 31.6032 19.6695 31.5552C19.1597 31.3022 18.7013 30.9691 18.3038 30.572L18.2942 30.5624C18.1659 30.4343 18.0409 30.2965 17.9255 30.1524C17.8069 30.0051 17.6979 29.8546 17.5953 29.6944C17.0727 28.8809 16.7682 27.9105 16.7682 26.8696V26.8664C16.7682 26.1426 16.9156 25.454 17.1817 24.8295C17.2234 24.7302 17.2715 24.6277 17.3196 24.5285C17.5728 24.0224 17.9062 23.5612 18.3038 23.1673C18.4352 23.036 18.5763 22.9111 18.7237 22.7926C18.8712 22.6741 19.0219 22.5652 19.1822 22.4627C19.9965 21.9343 20.9679 21.63 22.0098 21.63ZM22.0098 15.9292C22.9908 15.9292 23.9397 16.0573 24.8406 16.3007C24.988 16.3391 25.1323 16.3808 25.2766 16.4288C25.3984 16.4694 25.4542 16.6093 25.3928 16.722L24.8542 17.7118C24.597 18.1843 24.0475 18.407 23.5175 18.3145C23.0273 18.2289 22.5224 18.1839 22.0066 18.1839C20.8076 18.1839 19.6631 18.4273 18.6212 18.8661C18.4577 18.9365 18.2909 19.0134 18.121 19.0967L18.1082 19.1031C17.2715 19.5226 16.5149 20.0735 15.8577 20.73L15.8513 20.7364C15.6333 20.9542 15.4281 21.1848 15.2325 21.425C15.037 21.6684 14.8542 21.9215 14.6843 22.1841C13.8155 23.5356 13.3122 25.1466 13.3122 26.8728V26.876C13.3122 28.0739 13.5559 29.2172 13.9951 30.2581C14.0656 30.4278 14.1425 30.5944 14.2259 30.7577C14.6459 31.5968 15.2005 32.3591 15.8609 33.0188C16.0821 33.2398 16.3161 33.448 16.5566 33.6434C16.8002 33.8387 17.0535 34.0213 17.3164 34.191C18.6692 35.0526 20.2818 35.5554 22.0098 35.5554H22.013C23.212 35.5554 24.3565 35.312 25.3984 34.8732C25.5683 34.8028 25.735 34.7259 25.8985 34.6426C26.7384 34.2231 27.5014 33.669 28.1619 33.0092C28.3831 32.7882 28.5947 32.5544 28.787 32.3142C28.9826 32.0708 29.1653 31.8178 29.3352 31.5552C29.9016 30.675 30.3119 29.6881 30.5303 28.6303C30.6367 28.1148 31.0288 27.6911 31.549 27.6108C32.2717 27.4993 32.9179 28.081 32.7893 28.8008C32.645 29.6085 32.4125 30.3859 32.1019 31.1228C32.0121 31.3342 31.9159 31.5456 31.8102 31.7506C31.2812 32.8107 30.5823 33.7715 29.7552 34.5978L29.7488 34.6042C29.4731 34.8796 29.1813 35.139 28.88 35.3856C28.5754 35.6323 28.2548 35.8628 27.9246 36.0742C26.2191 37.1664 24.1898 37.8037 22.0162 37.8037C20.5062 37.8037 19.0636 37.4962 17.7556 36.9454C17.544 36.8557 17.3324 36.7596 17.1272 36.6539C16.0661 36.1255 15.1043 35.4273 14.2772 34.601L14.2708 34.5914C13.9951 34.3159 13.7354 34.0277 13.4917 33.7234C13.2449 33.4192 13.0141 33.0989 12.8025 32.769C11.7061 31.0652 11.0713 29.0411 11.0713 26.8664V26.8632C11.0713 25.3548 11.3791 23.9135 11.9337 22.6068C12.0234 22.3955 12.1196 22.1841 12.2254 21.9791C12.7544 20.919 13.4533 19.9582 14.2804 19.1319L14.2868 19.1255C14.5625 18.8501 14.851 18.5906 15.1556 18.3472C15.4602 18.1006 15.7807 17.87 16.1109 17.6586C17.8069 16.5633 19.8362 15.9292 22.0098 15.9292Z" fill="#1A1F36"/>
</g>
<defs>
<clipPath id="clip0_511_56">
<rect width="39.3744" height="36.3816" fill="white" transform="translate(5.45148 7.052)"/>
</clipPath>
</defs>
</svg>
