<svg width="50" height="50" viewBox="0 0 50 50" fill="none" xmlns="http://www.w3.org/2000/svg">
<path fill-rule="evenodd" clip-rule="evenodd" d="M3 39.4978C3.36166 34.807 2.4414 35.0111 6.36951 33.5394C8.33178 32.8054 10.8347 31.8744 12.6359 30.75L16.0054 39.4978H3ZM34.6756 16.3302L36.2153 16.5916C36.3729 16.6167 36.4803 16.7671 36.4516 16.9246L35.8178 20.7202C35.7928 20.8778 35.6424 20.9852 35.4848 20.9566L33.9451 20.6988C33.7875 20.6737 33.6801 20.5233 33.7088 20.3657L34.3426 16.5701C34.3676 16.4126 34.518 16.3051 34.6756 16.3302ZM39.1301 14.1209C39.4094 13.3832 40.5373 14.2963 40.4156 15.5389C40.3762 15.9184 40.2652 16.3481 40.0897 16.8244L41.8729 17.1216C42.6106 17.2755 43.1692 17.9129 42.564 18.7114C42.6034 19.1089 42.5461 19.5565 42.2346 19.6854C42.1701 20.2905 41.941 20.6343 41.5829 20.8778C41.5113 21.175 41.4039 21.4292 41.2248 21.6119C40.9276 21.9091 40.7486 21.7981 40.369 21.7336L37.3576 21.2287C36.8813 21.1499 36.6414 20.9745 36.3943 20.5305L36.9565 17.1753C37.8947 17.0822 38.5786 15.9327 38.9546 15.17L39.1301 14.1209ZM19.8511 34.8464H20.3202C20.7428 34.8464 21.0901 34.4991 21.0901 34.0765V32.8269C21.0901 32.4043 20.7428 32.057 20.3202 32.057H17.5308C17.1083 32.057 16.7609 32.4043 16.7609 32.8269V34.0765C16.7609 34.4991 17.1083 34.8464 17.5308 34.8464H18.007L17.0939 39.4978H20.732L19.8511 34.8464ZM34.1026 11.2025C33.6909 11.1488 33.3005 11.1703 32.9425 11.267C32.5844 11.3637 32.2406 11.5355 31.9148 11.7826C31.5925 12.0297 31.3383 12.3162 31.1485 12.6384C30.9623 12.9607 30.8406 13.3295 30.7833 13.7413L29.9668 19.8967C29.9131 20.3085 29.9346 20.6988 30.0313 21.0568C30.128 21.4149 30.2999 21.7587 30.5469 22.0845C30.8012 22.4068 31.0876 22.6718 31.4099 22.8508C31.7322 23.037 32.0938 23.1588 32.5056 23.2125L35.2127 23.5705C35.5278 23.6135 35.757 23.9071 35.714 24.2258C35.7033 24.2974 35.6818 24.3583 35.6567 24.4192C35.5027 24.7844 35.3416 25.1497 35.1661 25.497C34.9799 25.8658 34.7902 26.2132 34.5825 26.5462C34.4786 26.718 34.3605 26.8792 34.2351 27.0475C34.8224 26.8756 35.381 26.6608 35.9074 26.4065C36.4588 26.1415 36.9816 25.8336 37.4686 25.4863C37.9663 25.1353 38.4211 24.7343 38.8472 24.301C38.9797 24.165 39.1623 24.1112 39.3377 24.1327L41.6652 24.4407C42.077 24.4944 42.4566 24.4729 42.8183 24.3762C43.1763 24.2795 43.5201 24.1077 43.8531 23.8606C44.1754 23.6135 44.4296 23.3271 44.6194 23.0048C44.8056 22.6825 44.9273 22.3137 44.9846 21.9019L45.801 15.7465C45.8548 15.3348 45.8333 14.9444 45.7366 14.5864C45.6399 14.2283 45.468 13.881 45.221 13.5587C44.9739 13.2364 44.6874 12.9822 44.3652 12.7924C44.0429 12.6062 43.6741 12.4845 43.2623 12.4272L40.4084 12.0369L34.1026 11.2025ZM37.1141 10.4255L43.4198 11.2598C43.9748 11.335 44.4833 11.5069 44.9452 11.7683C45.4 12.0297 45.8046 12.3878 46.1484 12.8389C46.4921 13.2865 46.732 13.77 46.8681 14.2784C47.0006 14.7869 47.0364 15.324 46.9612 15.8862L46.1448 22.0416C46.0696 22.6037 45.8977 23.1122 45.6363 23.567C45.3749 24.0217 45.0169 24.4263 44.5657 24.7701C44.1181 25.1139 43.6347 25.3466 43.1262 25.4898C42.6177 25.6223 42.0806 25.6581 41.5184 25.5829L39.4774 25.3108C39.062 25.7154 38.618 26.0914 38.1561 26.4244C37.6046 26.8183 37.0281 27.1621 36.4194 27.4485C35.8071 27.7457 35.1626 27.9892 34.4858 28.1826C33.8162 28.3759 33.1072 28.5156 32.3695 28.6087C32.1583 28.6373 31.9434 28.5442 31.8145 28.358C31.6319 28.0931 31.7035 27.7314 31.9685 27.5488C32.3409 27.3017 32.6632 27.0367 32.9317 26.7682C33.1931 26.5032 33.4151 26.2275 33.5906 25.9374V25.9303C33.784 25.6187 33.963 25.2965 34.1277 24.9706C34.1814 24.856 34.2387 24.7343 34.296 24.6161L32.3481 24.3583C31.793 24.2867 31.2846 24.1112 30.8226 23.8498C30.3679 23.5884 29.9633 23.2304 29.6195 22.7792C29.2758 22.3316 29.0358 21.8482 28.8998 21.3397C28.7673 20.8241 28.7351 20.287 28.8067 19.7355L29.6303 13.5802C29.7054 13.0251 29.8773 12.5167 30.1387 12.0548C30.4001 11.6 30.7582 11.1954 31.2094 10.8516C31.657 10.5079 32.1404 10.268 32.6488 10.1319C33.1537 9.99939 33.6909 9.96358 34.2495 10.0388L37.1141 10.4255ZM14.9705 28.0608C15.0565 27.3411 12.9223 24.5911 12.532 23.2733C11.6977 21.9449 11.4005 19.8322 12.31 18.4285C12.6717 17.8699 12.5177 16.8781 12.5177 16.1082C12.5177 8.46324 25.9134 8.45966 25.9134 16.1082C25.9134 17.075 25.6914 17.8091 26.2142 18.5718C27.0915 19.843 26.6403 22.0953 25.8991 23.2769C25.4264 24.6627 23.1848 27.2802 23.3388 28.0644C23.4785 31.9854 14.9455 31.8565 14.9705 28.0608ZM25.3655 30.349C27.0127 31.4017 29.3474 32.2683 31.213 32.8913C34.8797 34.1124 34.8689 34.2806 34.8439 39.4978H21.8886L25.3655 30.349Z" fill="#1A1F36"/>
</svg>
