<svg width="50" height="50" viewBox="0 0 50 50" fill="none" xmlns="http://www.w3.org/2000/svg">
<rect width="50" height="50" fill="white"/>
<g clip-path="url(#clip0_515_434)">
<path d="M37.4319 10.5667C37.0593 10.1934 36.6214 10.0093 36.1145 10.0093C35.6083 10.0093 35.1645 10.1934 34.7971 10.5667L32.7895 12.5684C32.2514 12.2195 31.6814 11.9152 31.0862 11.6429C30.491 11.3705 29.8824 11.1367 29.2678 10.9341V7.85547C29.2678 7.33594 29.0912 6.89879 28.7297 6.53809C28.369 6.17738 27.9319 6 27.4124 6H23.5493C23.055 6 22.6253 6.17738 22.2512 6.53809C21.8838 6.89879 21.6997 7.33594 21.6997 7.85547V10.6743C21.054 10.8257 20.4269 11.0157 19.825 11.2502C19.2171 11.4848 18.6412 11.7505 18.0964 12.0481L15.8728 9.85641C15.5247 9.48977 15.101 9.29977 14.5874 9.29977C14.0804 9.29977 13.644 9.48977 13.27 9.85641L10.5662 12.5684C10.1929 12.9417 10.0088 13.3788 10.0088 13.8843C10.0088 14.3912 10.1929 14.835 10.5662 15.2016L12.5679 17.21C12.219 17.7488 11.9155 18.3181 11.6431 18.9133C11.37 19.5086 11.1362 20.1171 10.9336 20.7309H7.85572C7.33545 20.7309 6.8983 20.9083 6.5376 21.2698C6.17689 21.6305 5.99951 22.0676 5.99951 22.5871V26.4502C5.99951 26.9438 6.17689 27.375 6.5376 27.7491C6.8983 28.1157 7.33545 28.2998 7.85572 28.2998H10.6738C10.8252 28.9455 11.0152 29.5726 11.2497 30.1738C11.485 30.7824 11.7507 31.3709 12.0476 31.9409L9.85666 34.1259C9.48928 34.4748 9.29928 34.8986 9.29928 35.4121C9.29928 35.9183 9.48928 36.3555 9.85666 36.7295L12.5679 39.4719C12.9412 39.82 13.3783 39.9914 13.8853 39.9914C14.3914 39.9914 14.8345 39.82 15.2026 39.4719L17.2095 37.4324C17.7483 37.7805 18.3183 38.084 18.9136 38.3571C19.5088 38.6288 20.1167 38.8641 20.7312 39.0659V42.1445C20.7312 42.6641 20.9086 43.1005 21.2693 43.4612C21.63 43.8226 22.0679 44 22.5867 44H26.4497C26.944 44 27.3745 43.8226 27.7486 43.4612C28.1152 43.1005 28.2993 42.6641 28.2993 42.1445V39.3257C28.945 39.1743 29.5721 38.9843 30.1733 38.7498C30.7819 38.5152 31.3712 38.2495 31.9404 37.9519L34.1254 40.1436C34.4743 40.511 34.904 40.7002 35.425 40.7002C35.9497 40.7002 36.3802 40.511 36.729 40.1436L39.4714 37.4324C39.8195 37.0583 39.991 36.6219 39.991 36.115C39.991 35.6088 39.8195 35.165 39.4714 34.7976L37.4319 32.79C37.7807 32.2512 38.0843 31.6819 38.3567 31.0859C38.6283 30.4914 38.8636 29.8829 39.0662 29.2683H42.144C42.6636 29.2683 43.1 29.0902 43.4607 28.7302C43.8221 28.3688 43.9995 27.9324 43.9995 27.4129V23.5498C43.9995 23.0555 43.8221 22.6257 43.4607 22.2509C43.1 21.8836 42.6636 21.7002 42.144 21.7002H39.3252C39.1738 21.0798 38.9838 20.4586 38.7493 19.8448C38.5147 19.2236 38.249 18.6417 37.9514 18.0962L40.1431 15.8733C40.5105 15.5252 40.6997 15.1007 40.6997 14.5879C40.6997 14.0809 40.5105 13.6445 40.1431 13.2705L37.4319 10.5667ZM33.839 29.7136C32.1527 32.8694 28.8262 35.0158 24.9995 35.0158C21.1713 35.0158 17.8471 32.8694 16.1608 29.7151C16.3582 28.8534 16.684 28.1016 17.6378 27.5746C18.9559 26.8406 21.2255 26.8955 22.3054 25.924L23.7972 29.8413L24.5468 27.706L24.1794 27.3038C23.9033 26.9 23.9983 26.4413 24.5104 26.3582C24.6833 26.3307 24.8778 26.3478 25.0648 26.3478C25.2645 26.3478 25.4864 26.3293 25.6749 26.3716C26.1506 26.4762 26.1996 26.9371 25.9629 27.3038L25.5955 27.706L26.3458 29.8413L27.6951 25.924C28.6689 26.7998 31.2896 26.9764 32.362 27.5746C33.3187 28.1105 33.643 28.8542 33.839 29.7136ZM22.03 23.2974C21.8949 23.2996 21.7844 23.2826 21.6641 23.2158C21.5046 23.1275 21.3917 22.9753 21.3153 22.8039C21.1542 22.4432 21.0266 21.4954 21.4318 21.2237L21.3561 21.1748L21.3479 21.0701C21.3324 20.8794 21.3287 20.6486 21.3242 20.4059C21.3094 19.5152 21.2908 18.4346 20.5546 18.2186L20.2391 18.1251L20.4477 17.8743C21.0422 17.1588 21.6634 16.5331 22.2898 16.0529C22.9986 15.5089 23.7192 15.1475 24.4236 15.0428C25.1487 14.9359 25.8508 15.0985 26.4995 15.6084C26.6902 15.759 26.8765 15.9409 27.0561 16.1524C27.7471 16.2177 28.3134 16.5806 28.7171 17.0987C28.9576 17.4074 29.1409 17.7733 29.2582 18.1622C29.374 18.5496 29.4244 18.9616 29.4029 19.3668C29.3636 20.0941 29.0912 20.8029 28.5412 21.321C28.6377 21.3239 28.729 21.3455 28.8092 21.3885C29.1164 21.5481 29.1261 21.8947 29.0459 22.1864C28.9658 22.4298 28.8648 22.7118 28.7691 22.9493C28.6533 23.2692 28.4833 23.3293 28.1553 23.2945C27.4183 26.5193 22.9615 26.6291 22.03 23.2974ZM24.9995 13.2267C31.504 13.2267 36.7728 18.4992 36.7728 25C36.7728 31.5045 31.5003 36.7733 24.9995 36.7733C18.4957 36.7733 13.2262 31.5008 13.2262 25C13.2262 18.4955 18.4987 13.2267 24.9995 13.2267Z" fill="#1A1F36"/>
</g>
<defs>
<clipPath id="clip0_515_434">
<rect width="38" height="38" fill="white" transform="translate(5.99951 6)"/>
</clipPath>
</defs>
</svg>
