<svg width="31" height="31" viewBox="0 0 31 31" fill="none" xmlns="http://www.w3.org/2000/svg">
<rect x="1.16003" y="1.39551" width="29" height="29" rx="14.5" stroke="white"/>
<path d="M21.2147 9.98145C21.4725 10.0518 21.66 10.2627 21.66 10.5205C21.66 16.5439 16.785 21.3955 10.785 21.3955C10.5038 21.3955 10.2928 21.2314 10.2225 20.9736L9.66003 18.5361C9.61316 18.2783 9.73035 17.9971 9.98816 17.8799L12.6132 16.7549C12.8475 16.6611 13.1053 16.7314 13.2694 16.9189L14.4413 18.3486C16.2694 17.4814 17.746 15.9814 18.5897 14.2002L17.16 13.0283C16.9725 12.8643 16.9022 12.6064 16.996 12.3721L18.121 9.74707C18.2382 9.48926 18.5194 9.34863 18.7772 9.41895L21.2147 9.98145Z" fill="white"/>
</svg>
