<svg width="50" height="50" viewBox="0 0 50 50" fill="none" xmlns="http://www.w3.org/2000/svg">
<path fill-rule="evenodd" clip-rule="evenodd" d="M19.303 28.1564C19.3028 27.6329 19.3793 27.1121 19.5301 26.6104H29.973C30.1982 27.356 30.2591 28.141 30.1516 28.9121C30.044 29.6831 29.7706 30.4221 29.3498 31.0786C28.9291 31.7352 28.3709 32.2939 27.7133 32.7167C27.0558 33.1395 26.3142 33.4164 25.5393 33.5287C24.7643 33.641 23.9741 33.586 23.2225 33.3674C22.4708 33.1487 21.7754 32.7717 21.1836 32.2618C20.5918 31.752 20.1174 31.1214 19.7929 30.4129C19.4684 29.7045 19.3013 28.9348 19.303 28.1564ZM22.4542 17.9341C21.9192 17.4611 21.4961 17.1178 21.4059 16.1346H21.3468C21.2138 16.1351 21.0829 16.101 20.9673 16.0356C20.7763 15.9179 20.6297 15.7407 20.5504 15.5316C20.3575 15.0895 20.2051 13.9331 20.6904 13.5991L20.6002 13.5404V13.4105C20.5815 13.1786 20.5784 12.8972 20.5722 12.6004C20.5722 11.512 20.5317 10.1917 19.6389 9.92577L19.2657 9.81137L19.5145 9.50217C20.1674 8.68274 20.908 7.93627 21.7232 7.2759C22.4557 6.65388 23.3358 6.22814 24.2803 6.03909C24.7208 5.96843 25.1715 5.99378 25.6012 6.11337C26.0309 6.23296 26.4293 6.44394 26.7689 6.7317C27.0128 6.93037 27.2359 7.1531 27.4346 7.39649C27.8297 7.43902 28.2113 7.56402 28.5544 7.76331C28.8975 7.96259 29.1943 8.23167 29.4255 8.55291C29.7189 8.94419 29.9382 9.3853 30.0726 9.85466C30.2128 10.3322 30.2717 10.8296 30.2468 11.3265C30.2262 12.2301 29.859 13.0918 29.2202 13.7352C29.3285 13.7394 29.4346 13.7668 29.5313 13.8156C29.8984 14.0104 29.9108 14.434 29.8144 14.7926C29.718 15.1018 29.5966 15.4358 29.4815 15.7202C29.3415 16.1129 29.1393 16.1871 28.7474 16.1439C28.7256 17.1117 28.2777 17.3807 27.671 17.9465C27.6959 19.4029 22.4262 19.2328 22.4573 17.9465L22.4542 17.9341ZM22.1805 19.1339L23.7514 23.2277L24.554 20.9953L24.1683 20.5778C23.8759 20.1542 23.9754 19.675 24.5167 19.5884C24.7103 19.5743 24.9048 19.5743 25.0984 19.5884C25.3123 19.5733 25.5272 19.5816 25.7392 19.6131C26.2401 19.7213 26.293 20.2037 26.0503 20.5871L25.6615 21.0045L26.4205 23.2277L27.839 19.1339C28.8625 20.0615 31.8831 20.2346 33.0185 20.8592C34.5739 21.7281 34.5366 23.407 34.885 24.9623H15.1407C15.4798 23.4163 15.4518 21.7157 17.0072 20.8592C18.3946 20.0924 21.0513 20.1511 22.1867 19.1339H22.1805ZM12.5805 18.064C12.313 17.6435 11.8184 17.0746 11.8184 16.5829C11.8244 16.4233 11.8787 16.2692 11.9741 16.1407C12.0695 16.0121 12.2017 15.9152 12.3534 15.8625C12.3286 15.4481 12.3099 15.0276 12.3099 14.6102C12.3099 14.3628 12.3099 14.1124 12.3099 13.8681C12.3341 13.7177 12.3715 13.5698 12.4219 13.426C12.6152 12.7984 13.0381 12.2655 13.6071 11.9325C13.8085 11.806 14.0234 11.7023 14.2479 11.6233C14.6554 11.4749 14.4595 10.7946 14.9043 10.7854C15.9464 10.7575 17.6605 11.713 18.3262 12.4272C18.7523 12.8953 18.9952 13.4999 19.0106 14.1309L18.9546 15.946C19.0532 15.966 19.1452 16.0106 19.2219 16.0755C19.2985 16.1403 19.3575 16.2234 19.3932 16.317C19.5363 16.8921 18.939 17.6033 18.659 18.0609C18.5439 18.2495 18.2826 18.6299 18.0369 18.9885C17.4678 19.1143 16.9162 19.3085 16.3944 19.5667L16.3104 19.61C14.4439 20.6366 14.167 22.2321 13.8902 23.8492C13.8497 24.0873 13.8093 24.3254 13.7502 24.5944C13.7188 24.7145 13.7031 24.8382 13.7035 24.9623H9C9 20.8252 12.1792 22.1393 13.6973 20.0615C13.772 19.9532 13.8062 19.8945 13.8062 19.845C13.8062 19.7956 12.6801 18.2341 12.5805 18.064ZM36.9257 18.064C37.1901 17.6435 37.6878 17.0746 37.6878 16.5829C37.6818 16.4233 37.6276 16.2692 37.5321 16.1407C37.4367 16.0121 37.3045 15.9152 37.1528 15.8625C37.1777 15.4481 37.1932 15.0276 37.1932 14.6102C37.1932 14.3628 37.1932 14.1124 37.1932 13.8681C37.1727 13.7185 37.1404 13.5706 37.0968 13.426C36.9013 12.7995 36.479 12.2674 35.9116 11.9325C35.7088 11.8066 35.4929 11.7029 35.2676 11.6233C34.8601 11.4749 35.0592 10.7946 34.6112 10.7854C33.5691 10.7575 31.8551 11.713 31.1894 12.4272C30.7627 12.8947 30.5207 13.4999 30.5081 14.1309L30.5485 15.946C30.4501 15.9666 30.3584 16.0113 30.2818 16.0761C30.2052 16.1409 30.1461 16.2237 30.1099 16.317C29.9699 16.8921 30.5672 17.6033 30.8441 18.0609C30.9467 18.2279 31.1551 18.5495 31.3916 18.871C32.1987 19.014 32.9832 19.2625 33.7247 19.61C35.5912 20.6459 35.8556 22.2166 36.1324 23.8337C36.176 24.0935 36.2195 24.3563 36.2849 24.6531C36.3072 24.7547 36.3187 24.8584 36.3191 24.9623H40.5C40.5 20.8252 37.3208 22.1393 35.7996 20.0615C35.7249 19.9532 35.6907 19.8945 35.6907 19.845C35.6907 19.7956 36.8199 18.2341 36.935 18.0764L36.9257 18.064ZM40.4876 28.3605V29.5045C40.4835 30.0131 40.2782 30.4996 39.9161 30.8589C39.5541 31.2182 39.0643 31.4215 38.5526 31.4247H36.5617C36.3139 32.5234 35.9118 33.582 35.3672 34.5693L36.6862 35.8865C37.0477 36.25 37.2504 36.7405 37.2504 37.2516C37.2504 37.7628 37.0477 38.2533 36.6862 38.6168L35.0716 40.2215C34.7067 40.5824 34.2129 40.7849 33.6982 40.7849C33.1835 40.7849 32.6897 40.5824 32.3248 40.2215L31.1147 39.0187C30.0978 39.6478 28.9929 40.124 27.8359 40.4318V42.0706C27.8343 42.5818 27.6292 43.0716 27.2656 43.4331C26.9019 43.7946 26.4091 43.9984 25.8948 44H23.6208C23.1065 43.9984 22.6137 43.7946 22.25 43.4331C21.8863 43.0716 21.6813 42.5818 21.6796 42.0706V40.4534C20.5108 40.1547 19.3939 39.6825 18.3666 39.0527L17.1876 40.2215C16.8233 40.5822 16.33 40.7847 15.8158 40.7847C15.3016 40.7847 14.8083 40.5822 14.4439 40.2215L12.8263 38.6168C12.4648 38.2533 12.262 37.7628 12.262 37.2516C12.262 36.7405 12.4648 36.25 12.8263 35.8865L14.0986 34.625C13.5379 33.6217 13.1241 32.5441 12.8698 31.4247H10.9598C10.4471 31.4231 9.95571 31.2206 9.59229 30.8611C9.22888 30.5016 9.02276 30.0141 9.01866 29.5045V27.2257C9.01963 27.0152 9.05537 26.8063 9.12443 26.6073H17.0165C16.9377 27.0566 16.8981 27.5118 16.8983 27.9678C16.8983 28.1038 16.8983 28.2368 16.8983 28.3698C16.8983 28.5027 16.8983 28.6388 16.8983 28.7717C16.8983 30.8309 17.7213 32.8057 19.1862 34.2618C20.6511 35.7178 22.6379 36.5358 24.7096 36.5358C26.7812 36.5358 28.768 35.7178 30.2329 34.2618C31.6978 32.8057 32.5208 30.8309 32.5208 28.7717C32.5208 28.6388 32.5208 28.5027 32.5208 28.3698C32.5208 28.2368 32.5208 28.1038 32.5208 27.9678C32.521 27.5118 32.4814 27.0566 32.4026 26.6073H40.3787C40.4501 26.8058 40.4869 27.0149 40.4876 27.2257V28.3605Z" fill="white"/>
</svg>
