<svg width="50" height="50" viewBox="0 0 50 50" fill="none" xmlns="http://www.w3.org/2000/svg">
<rect width="50" height="50" fill="#1A1F36"/>
<path d="M15.844 9.67301C15.844 8.69662 16.1335 7.74217 16.676 6.93033C17.2184 6.1185 17.9894 5.48576 18.8915 5.11211C19.7935 4.73847 20.7861 4.6407 21.7437 4.83119C22.7014 5.02167 23.581 5.49184 24.2714 6.18225C24.9618 6.87265 25.432 7.75229 25.6225 8.70991C25.813 9.66753 25.7152 10.6601 25.3415 11.5622C24.9679 12.4642 24.3352 13.2353 23.5233 13.7777C22.7115 14.3202 21.757 14.6097 20.7806 14.6097C19.4721 14.6074 18.2177 14.0866 17.2924 13.1613C16.3671 12.236 15.8462 10.9816 15.844 9.67301ZM22.8453 19.1312C22.7787 19.3579 22.6491 19.5611 22.4716 19.7171L22.933 25.4658C22.9397 25.553 22.9263 25.6405 22.8938 25.7217C22.8614 25.8029 22.8108 25.8755 22.7458 25.934L21.1979 27.512H25.7678V23.3665C25.7678 23.2154 25.8278 23.0705 25.9346 22.9637C26.0415 22.8569 26.1864 22.7968 26.3374 22.7968C26.4885 22.7968 26.6334 22.8569 26.7403 22.9637C26.8471 23.0705 26.9071 23.2154 26.9071 23.3665V27.512H30.3235V22.9721C30.3235 21.0896 29.4816 19.378 28.1298 18.1392C26.9003 17.029 25.3452 16.3453 23.6959 16.1899L22.8453 19.1312ZM19.9017 18.912C19.924 18.9222 19.9455 18.9337 19.9663 18.9466C20.0585 18.981 20.1563 18.9983 20.2547 18.9974H21.3045C21.4029 18.9983 21.5006 18.981 21.5928 18.9466C21.6144 18.9337 21.6367 18.9222 21.6597 18.912C21.7017 18.8918 21.7351 18.8574 21.7541 18.8149L22.5246 16.1528H19.0346L19.8048 18.8149C19.8249 18.8575 19.8592 18.8918 19.9017 18.912ZM21.7771 25.2997L21.3641 20.1369H20.1947L19.7818 25.2997L20.7806 26.3147L21.7771 25.2997ZM14.6513 23.3665C14.6513 23.2154 14.7114 23.0705 14.8182 22.9637C14.925 22.8569 15.0699 22.7968 15.221 22.7968C15.3721 22.7968 15.517 22.8569 15.6238 22.9637C15.7307 23.0705 15.7907 23.2154 15.7907 23.3665V27.512H20.3628L18.7872 25.9088C18.7301 25.851 18.6863 25.7814 18.6588 25.7049C18.6313 25.6284 18.6208 25.5468 18.6281 25.4659H18.6258L19.0871 19.7172C18.9103 19.5606 18.7809 19.3576 18.7134 19.1312L17.8628 16.1899C16.2134 16.3453 14.6582 17.0291 13.4287 18.1395C12.0768 19.3782 11.2371 21.0899 11.2371 22.9723V27.512H14.6513V23.3665ZM36.8225 28.6516H31.5237C31.293 31.7912 30.9101 34.1973 28.3336 36.774C27.3419 37.7665 26.1643 38.5537 24.8682 39.0909C23.5721 39.628 22.1828 39.9045 20.7798 39.9045C19.3768 39.9045 17.9875 39.628 16.6914 39.0909C15.3953 38.5537 14.2177 37.7665 13.226 36.774C10.6492 34.1973 10.2663 31.7912 10.0379 28.6516H4.73616C4.58508 28.6516 4.44019 28.7116 4.33335 28.8184C4.22652 28.9252 4.1665 29.0701 4.1665 29.2212C4.1665 29.7102 4.18962 30.2132 4.23576 30.7253C4.28193 31.2212 4.34804 31.7095 4.43408 32.1901C4.44916 32.3007 4.4963 32.4044 4.56969 32.4885C4.64308 32.5725 4.73949 32.6332 4.847 32.663L7.8461 33.4959C7.9519 33.8189 8.06982 34.1326 8.19441 34.4348C8.32125 34.7393 8.46041 35.0415 8.61189 35.3414L7.07991 38.052C7.02709 38.1447 7.00166 38.2505 7.00656 38.3571C7.01145 38.4637 7.04648 38.5667 7.10758 38.6542C8.24679 40.3087 9.67806 41.7416 11.3312 42.8827C11.4196 42.9482 11.5251 42.9867 11.6349 42.9932C11.7448 42.9998 11.8542 42.9742 11.9497 42.9196L14.658 41.3879C14.9602 41.5401 15.2624 41.6808 15.5669 41.8054C15.8743 41.934 16.1867 42.0502 16.5035 42.1537L17.3362 45.155H17.3385C17.3667 45.2578 17.4234 45.3506 17.5023 45.4225C17.5811 45.4944 17.6787 45.5424 17.7837 45.561C18.2659 45.6486 18.7596 45.7179 19.2579 45.7616L19.2741 45.764C19.7863 45.8101 20.2868 45.8332 20.7806 45.8332C21.2696 45.8332 21.7725 45.8101 22.2846 45.764C22.7806 45.7202 23.2688 45.654 23.7495 45.5656C23.86 45.5514 23.9639 45.5049 24.0481 45.4318C24.1322 45.3588 24.1929 45.2624 24.2224 45.155L25.0551 42.1537C25.3781 42.0479 25.6899 41.9323 25.9941 41.8054C26.3016 41.6781 26.6041 41.5389 26.9007 41.3879L29.609 42.9197C29.7019 42.9729 29.8079 42.9987 29.9149 42.9942C30.0218 42.9897 30.1253 42.9551 30.2134 42.8943C31.0409 42.322 31.8153 41.6765 32.5272 40.9656C33.2333 40.2599 33.8742 39.4918 34.4419 38.6707C34.5074 38.5823 34.5458 38.4767 34.5524 38.3669C34.5589 38.2571 34.5333 38.1477 34.4788 38.0522L32.947 35.3417C33.0993 35.0418 33.24 34.7372 33.3646 34.4327C33.4932 34.1253 33.6094 33.8129 33.7129 33.4961L36.7119 32.6634C36.8152 32.6348 36.9083 32.5777 36.9806 32.4985C37.0528 32.4193 37.1012 32.3213 37.1201 32.2158C37.2078 31.7336 37.2747 31.2422 37.3209 30.7417L37.3232 30.7278C37.3693 30.2157 37.3924 29.7136 37.3924 29.2215C37.3924 29.1466 37.3777 29.0725 37.349 29.0034C37.3204 28.9342 37.2785 28.8714 37.2255 28.8184C37.1726 28.7655 37.1098 28.7235 37.0406 28.6949C36.9715 28.6663 36.8974 28.6515 36.8225 28.6516ZM14.0307 35.9689C15.3265 37.2648 16.9679 38.1602 18.7589 38.5482C20.5499 38.9362 22.4147 38.8004 24.1305 38.1569C25.8464 37.5134 27.3407 36.3895 28.4349 34.9196C29.5291 33.4496 30.177 31.6956 30.3011 29.8673L30.3818 28.6516H11.1772L11.2579 29.8673C11.4119 32.1701 12.3973 34.3385 14.0307 35.9689ZM44.283 20.3653L42.9958 15.5578C42.8831 15.687 42.7662 15.8124 42.6451 15.9338C41.4266 17.1555 39.8256 17.9218 38.1098 18.1045L39.0879 21.7563H39.0903C39.1229 21.8815 39.1979 21.9916 39.3025 22.0678C39.3626 22.1119 39.4308 22.1437 39.5032 22.1615C39.5757 22.1792 39.6509 22.1825 39.7246 22.1712C39.7983 22.1598 39.869 22.1341 39.9327 22.0954C39.9965 22.0567 40.052 22.0058 40.096 21.9457L41.4363 20.1279L43.4779 21.0206C43.6029 21.083 43.7464 21.0978 43.8816 21.0621C44.0271 21.0227 44.151 20.9272 44.2262 20.7966C44.3015 20.666 44.3219 20.5109 44.283 20.3653ZM30.7186 21.062C30.853 21.0976 30.9958 21.0829 31.12 21.0205L33.1616 20.1277L34.5019 21.9455C34.5652 22.0321 34.6517 22.0991 34.7515 22.1385C34.8512 22.178 34.9601 22.1885 35.0656 22.1687C35.171 22.1489 35.2687 22.0997 35.3473 22.0267C35.426 21.9537 35.4824 21.86 35.51 21.7563L36.4907 18.1045C34.774 17.9225 33.1719 17.1562 31.9527 15.9341C31.8328 15.812 31.7152 15.6872 31.6044 15.5581L30.3149 20.3655C30.2765 20.5114 30.2974 20.6666 30.373 20.7971C30.4487 20.9276 30.5729 21.0228 30.7186 21.062ZM32.7602 15.1284C31.7096 14.0781 31.0557 12.6961 30.9098 11.2177C30.764 9.73936 31.1353 8.25617 31.9604 7.02088C32.7856 5.78559 34.0135 4.87463 35.435 4.44322C36.8566 4.01181 38.3837 4.08666 39.7562 4.65499C41.1287 5.22333 42.2617 6.24999 42.9621 7.56005C43.6625 8.87011 43.887 10.3825 43.5973 11.8395C43.3076 13.2965 42.5217 14.608 41.3734 15.5505C40.2252 16.493 38.7856 17.0082 37.3001 17.0083C36.4568 17.0093 35.6217 16.8437 34.8426 16.5211C34.0636 16.1985 33.3559 15.7252 32.7602 15.1284ZM32.158 10.5862C32.1577 11.7761 32.57 12.9294 33.3248 13.8494C34.0795 14.7694 35.1298 15.3993 36.2969 15.6316C37.464 15.864 38.6755 15.6845 39.725 15.1237C40.7746 14.5629 41.5972 13.6556 42.0527 12.5562C42.5082 11.4569 42.5684 10.2336 42.2231 9.09488C41.8778 7.95612 41.1483 6.97234 40.1589 6.31117C39.1695 5.64999 37.9815 5.35235 36.7973 5.46895C35.613 5.58554 34.5058 6.10917 33.6644 6.9506C33.1861 7.42746 32.8068 7.99418 32.5483 8.61817C32.2897 9.24215 32.1571 9.91108 32.1581 10.5865L32.158 10.5862ZM34.4692 13.419C33.8138 12.7641 33.4059 11.9022 33.3148 10.9802C33.2237 10.0583 33.4551 9.13321 33.9697 8.36275C34.4842 7.59228 35.25 7.02407 36.1365 6.75494C37.023 6.48581 37.9754 6.53242 38.8315 6.88683C39.6875 7.24123 40.3941 7.8815 40.8309 8.69853C41.2678 9.51555 41.4078 10.4588 41.2271 11.3675C41.0464 12.2762 40.5563 13.0941 39.8401 13.6819C39.124 14.2696 38.2261 14.5909 37.2997 14.5909C36.7741 14.5914 36.2535 14.4882 35.7679 14.2872C35.2822 14.0862 34.841 13.7913 34.4696 13.4194L34.4692 13.419ZM35.558 11.2044L36.3077 11.9542C36.4147 12.0605 36.5594 12.1203 36.7103 12.1203C36.8611 12.1203 37.0058 12.0605 37.1128 11.9542L39.0415 10.0255C39.142 9.91745 39.1966 9.77467 39.194 9.62719C39.1913 9.4797 39.1315 9.339 39.0272 9.23469C38.9229 9.13039 38.7822 9.07061 38.6347 9.06794C38.4872 9.06527 38.3444 9.11991 38.2364 9.22037L36.7119 10.7457L36.3635 10.3974C36.3105 10.3445 36.2476 10.3026 36.1784 10.2741C36.1092 10.2455 36.0351 10.2309 35.9602 10.231C35.8853 10.2311 35.8112 10.2459 35.7421 10.2747C35.673 10.3034 35.6102 10.3455 35.5573 10.3985C35.5045 10.4515 35.4625 10.5144 35.434 10.5836C35.4054 10.6528 35.3908 10.727 35.3909 10.8019C35.391 10.8767 35.4059 10.9508 35.4346 11.02C35.4634 11.0891 35.5054 11.1519 35.5585 11.2047L35.558 11.2044Z" fill="white"/>
</svg>
