<svg width="50" height="50" viewBox="0 0 50 50" fill="none" xmlns="http://www.w3.org/2000/svg">
<path d="M8 7C7.44772 7 7 7.44772 7 8L7 17C7 17.5523 7.44772 18 8 18C8.55228 18 9 17.5523 9 17L9 9L17 9C17.5523 9 18 8.55228 18 8C18 7.44772 17.5523 7 17 7L8 7ZM42 43C42.5523 43 43 42.5523 43 42L43 33C43 32.4477 42.5523 32 42 32C41.4477 32 41 32.4477 41 33L41 41L33 41C32.4477 41 32 41.4477 32 42C32 42.5523 32.4477 43 33 43L42 43ZM8 8L7.29289 8.70711L41.2929 42.7071L42 42L42.7071 41.2929L8.70711 7.29289L8 8Z" fill="#1A1F36"/>
<path d="M42 7C42.5523 7 43 7.44772 43 8L43 17C43 17.5523 42.5523 18 42 18C41.4477 18 41 17.5523 41 17L41 9L33 9C32.4477 9 32 8.55228 32 8C32 7.44772 32.4477 7 33 7L42 7ZM8 43C7.44772 43 7 42.5523 7 42L7 33C7 32.4477 7.44772 32 8 32C8.55229 32 9 32.4477 9 33L9 41L17 41C17.5523 41 18 41.4477 18 42C18 42.5523 17.5523 43 17 43L8 43ZM42 8L42.7071 8.70711L8.70711 42.7071L8 42L7.29289 41.2929L41.2929 7.29289L42 8Z" fill="#1A1F36"/>
</svg>
