<svg width="50" height="50" viewBox="0 0 50 50" fill="none" xmlns="http://www.w3.org/2000/svg">
<rect width="50" height="50" fill="white"/>
<g clip-path="url(#clip0_511_63)">
<path d="M16.9715 28.3299C16.9715 28.5844 16.7651 28.788 16.5143 28.788C16.2603 28.788 16.057 28.5812 16.057 28.3299V17.109H6.45568V39.7226H8.04003C8.29403 39.7226 8.49724 39.9294 8.49724 40.1807C8.49724 40.4352 8.29086 40.6389 8.04003 40.6389H5.99847C5.74446 40.6389 5.54126 40.4321 5.54126 40.1807V16.864C5.54126 16.6795 5.61746 16.5109 5.73811 16.3868C5.85877 16.2659 6.02704 16.1895 6.21437 16.1895H16.057V7.2529C16.057 7.03338 16.1459 6.82977 16.292 6.68661V6.68342C16.4381 6.53708 16.6381 6.448 16.8603 6.448H33.1642C33.3865 6.448 33.5865 6.53708 33.7326 6.68342L33.7675 6.7216C33.8913 6.86477 33.9707 7.04929 33.9707 7.2529V16.1895H43.8832C44.0674 16.1895 44.2357 16.2659 44.3563 16.3868L44.3595 16.39C44.4802 16.5109 44.5564 16.6795 44.5564 16.864V40.1807C44.5564 40.4352 44.35 40.6389 44.0991 40.6389H41.1971C40.9431 40.6389 40.7399 40.4321 40.7399 40.1807C40.7399 39.9262 40.9463 39.7226 41.1971 39.7226H43.6419V17.109H33.9675V28.1963C33.9675 28.4508 33.7612 28.6544 33.5103 28.6544C33.2563 28.6544 33.0531 28.4476 33.0531 28.1963V7.36425H16.9715V28.3299ZM36.3869 28.2535H41.4353C41.4765 28.2535 41.5115 28.279 41.5115 28.3076V29.8029C41.5115 29.8347 41.4765 29.8602 41.4353 29.8602H36.3869C36.3457 29.8602 36.3107 29.8347 36.3107 29.8029V28.3076C36.3107 28.279 36.3457 28.2535 36.3869 28.2535ZM8.62424 28.2535H13.6726C13.7139 28.2535 13.7488 28.279 13.7488 28.3076V29.8029C13.7488 29.8347 13.7139 29.8602 13.6726 29.8602H8.62424C8.58296 29.8602 8.54804 29.8347 8.54804 29.8029V28.3076C8.54804 28.279 8.58296 28.2535 8.62424 28.2535ZM19.0225 9.14267H31.0052C31.2052 9.14267 31.3703 9.30811 31.3703 9.50854V13.4249C31.3703 13.6253 31.2052 13.7907 31.0052 13.7907H19.0225C18.8225 13.7907 18.6574 13.6253 18.6574 13.4249V9.50854C18.6542 9.30811 18.8193 9.14267 19.0225 9.14267ZM36.4663 39.8594C36.1329 39.1881 35.7106 38.6186 35.2153 38.0842C36.1425 38.4437 37.0918 38.8 37.7935 39.2422C39.0699 40.0439 39.1651 41.0143 39.2699 42.4077H32.942C32.942 42.3982 32.942 42.3855 32.942 42.3759L32.8245 41.3801L33.2786 41.7746L35.5011 39.8371L36.4663 39.8594ZM13.8218 38.2878L14.6251 40.6548L15.0283 39.2486L14.8315 39.0322C14.7426 38.9018 14.7235 38.7873 14.7711 38.6886C14.8791 38.4755 15.1014 38.5168 15.3077 38.5168C15.5236 38.5168 15.7935 38.4755 15.8602 38.7491C15.8824 38.8414 15.8538 38.9368 15.7903 39.0354L15.5935 39.2518L15.9967 40.6579L16.7238 38.291C16.8286 38.3864 16.9778 38.4659 17.1493 38.5359C17.0889 38.6632 17.035 38.7936 16.9873 38.9336C16.8635 39.2931 16.7841 39.6908 16.7492 40.133H16.7524C16.7524 40.1426 16.7524 40.1553 16.7492 40.1648L16.5746 42.4109H10.7611C10.4118 42.3855 10.234 42.2041 10.2054 41.8923L10.3261 40.6516C10.361 40.2094 10.4848 39.8626 10.6849 39.5953C10.8182 39.4204 10.9833 39.2899 11.1643 39.1881C11.7421 38.8541 13.2979 38.7618 13.8218 38.2878ZM13.4281 34.9314C13.3487 34.9377 13.2916 34.9568 13.2471 34.9823C13.2217 34.9982 13.2058 35.0204 13.1931 35.0459C13.1804 35.0745 13.1741 35.1127 13.1741 35.1541C13.1773 35.2845 13.2471 35.4595 13.3836 35.6599L13.3868 35.6631L13.8345 36.3789C14.0123 36.6653 14.2028 36.9548 14.4314 37.1679C14.6505 37.3683 14.9204 37.5051 15.2728 37.5083C15.657 37.5083 15.9364 37.3683 16.165 37.1552C16.4031 36.9325 16.5936 36.6207 16.781 36.3121L17.2858 35.4786C17.3874 35.2463 17.4191 35.1063 17.3874 35.0395C17.3683 34.9982 17.2826 34.9886 17.1461 34.9982C17.0572 35.0173 16.9683 35.0014 16.8699 34.9505L17.1207 34.1933C16.1967 34.1805 15.5617 34.0215 14.8156 33.5411C14.5711 33.3852 14.4949 33.2039 14.2504 33.2198C14.0631 33.2548 13.9075 33.3407 13.7837 33.4743C13.6631 33.6015 13.5742 33.7765 13.517 34.0024L13.6662 34.9123C13.5869 34.96 13.5075 34.9632 13.4281 34.9314ZM17.4318 34.7055C17.5398 34.7373 17.6192 34.8009 17.67 34.8964C17.7462 35.0523 17.7176 35.2813 17.5747 35.6058C17.5715 35.6122 17.5684 35.6186 17.5652 35.6249L17.054 36.468C16.8572 36.7957 16.654 37.1234 16.3841 37.3779C16.1015 37.642 15.7554 37.8169 15.2792 37.8169C14.8346 37.8169 14.5013 37.6451 14.2282 37.3938C13.9647 37.152 13.7647 36.8434 13.5773 36.5412L13.1296 35.8253C12.9614 35.574 12.8756 35.345 12.8693 35.1572C12.8661 35.065 12.882 34.9823 12.9169 34.9091C12.9518 34.8327 13.009 34.7659 13.082 34.7182C13.1169 34.6928 13.1582 34.6737 13.2058 34.6578C13.1773 34.276 13.1677 33.802 13.1868 33.4011C13.1963 33.3025 13.2154 33.207 13.2408 33.1084C13.3551 32.698 13.644 32.3671 13.9996 32.1413C14.1266 32.0617 14.2631 31.9949 14.4092 31.9408C15.2728 31.629 16.4158 31.7977 17.0286 32.4626C17.2794 32.733 17.435 33.0925 17.4668 33.5665L17.4318 34.7055ZM21.95 31.5368C21.8483 31.5495 21.7721 31.575 21.715 31.61C21.6769 31.6354 21.6515 31.6672 21.6356 31.7022C21.6166 31.7468 21.607 31.8008 21.607 31.8613C21.6134 32.0554 21.7182 32.3162 21.9182 32.6153L21.9214 32.6216L22.5913 33.6906C22.858 34.1169 23.1374 34.5496 23.4835 34.8677C23.8137 35.17 24.2106 35.3736 24.7376 35.3736C25.3092 35.3736 25.7283 35.1636 26.0648 34.8455C26.4204 34.5114 26.7062 34.0501 26.9824 33.5888L27.7349 32.348C27.8873 32.0013 27.9318 31.7913 27.8841 31.6959C27.8524 31.6322 27.7222 31.6163 27.5 31.6386C27.4841 31.6386 27.465 31.6386 27.4491 31.6386C27.3571 31.6386 27.2586 31.6163 27.1475 31.5654L27.4872 30.4328C26.1061 30.4169 25.1631 30.1751 24.0455 29.4593C23.6772 29.2239 23.5692 28.9566 23.2009 28.9821C22.9247 29.0362 22.6897 29.1602 22.5056 29.3607C22.3278 29.5516 22.1944 29.8124 22.1055 30.1497L22.3437 31.5209C22.2071 31.5845 22.0738 31.5909 21.95 31.5368ZM22.5723 36.5412L23.7724 40.0757L24.3757 37.9792L24.0804 37.6547C23.9471 37.4606 23.9185 37.2888 23.9915 37.1425C24.1503 36.8243 24.4836 36.8848 24.7916 36.8848C25.1155 36.8848 25.5155 36.8243 25.6171 37.2284C25.6521 37.3652 25.6076 37.5051 25.5124 37.6547L25.2171 37.9792L25.8203 40.0757L26.9062 36.5412C27.6905 37.2474 29.7066 37.3906 30.5702 37.871C30.8052 38.0014 31.0179 38.1637 31.1989 38.3705C31.2021 38.3482 31.2084 38.3228 31.2211 38.3037C31.3164 38.116 31.5132 38.151 31.6974 38.151C31.8911 38.151 32.1292 38.116 32.1895 38.3578C32.2086 38.4373 32.1832 38.5232 32.1292 38.6123L31.9546 38.8064L32.3133 40.0535L31.853 40.4193L32.0054 42.4205C31.9609 42.8881 31.6974 43.1554 31.1767 43.1967H18.305C17.7843 43.1554 17.5207 42.8881 17.4763 42.4205L17.6573 40.063C17.7081 39.4045 17.8922 38.8827 18.1939 38.485C18.3907 38.2242 18.6384 38.0301 18.9114 37.8774C19.7719 37.3906 21.788 37.2474 22.5723 36.5412ZM27.9572 31.1964C28.1191 31.2441 28.2397 31.3363 28.3128 31.4827C28.4271 31.7149 28.3826 32.0554 28.1699 32.5421C28.1667 32.5517 28.1604 32.5612 28.1572 32.5707L27.392 33.8306C27.0967 34.3205 26.7951 34.8073 26.3919 35.1859C25.9696 35.5804 25.452 35.8444 24.744 35.8413C24.0804 35.8413 23.5819 35.5867 23.1723 35.2113C22.7786 34.8518 22.4834 34.3905 22.1976 33.9388L21.5277 32.8698C21.2768 32.4976 21.1498 32.154 21.1403 31.8708C21.1371 31.734 21.1594 31.61 21.2102 31.5018C21.2641 31.3873 21.3467 31.2886 21.4578 31.2155C21.5118 31.1773 21.5753 31.1486 21.642 31.1232C21.6007 30.5505 21.588 29.8443 21.6134 29.2493C21.6293 29.103 21.6547 28.9598 21.6959 28.8135C21.8674 28.1995 22.296 27.7063 22.8294 27.3691C23.0168 27.2482 23.2231 27.1496 23.4391 27.0732C24.7249 26.6056 26.4331 26.8601 27.3475 27.8527C27.719 28.2567 27.954 28.7912 28.0048 29.4975L27.9572 31.1964ZM30.2845 37.0311L30.875 37.0152L31.3672 37.0025C30.7957 35.2368 30.9862 33.6143 32.3641 32.2335C32.5991 32.9907 33.123 33.6174 34.0152 34.0787C34.4406 34.3969 34.8534 34.7787 35.2534 35.2209C35.3233 34.9282 35.0534 34.575 34.7264 34.2092C35.028 34.3587 35.3074 34.5687 35.5043 34.9727C35.7329 35.4404 35.7297 35.8349 35.6535 36.3439C35.6186 36.5794 35.5614 36.8021 35.4789 37.0025H36.2949C37.1553 35.1573 36.6092 32.418 34.8502 31.2568C34.3104 30.9005 33.9231 30.9132 33.2881 30.9132C32.5642 30.9132 32.1927 30.9355 31.5704 31.3491C30.656 31.9567 30.0908 33.0066 29.8558 34.4637C29.8082 35.1922 29.7765 36.4489 30.2845 37.0311ZM36.3869 24.9862H41.4353C41.4765 24.9862 41.5115 25.0117 41.5115 25.0435V26.5387C41.5115 26.5706 41.4765 26.596 41.4353 26.596H36.3869C36.3457 26.596 36.3107 26.5706 36.3107 26.5387V25.0435C36.3107 25.0117 36.3457 24.9862 36.3869 24.9862ZM36.3869 21.7157H41.4353C41.4765 21.7157 41.5115 21.7411 41.5115 21.773V23.2682C41.5115 23.3 41.4765 23.3255 41.4353 23.3255H36.3869C36.3457 23.3255 36.3107 23.3 36.3107 23.2682V21.773C36.3107 21.7411 36.3457 21.7157 36.3869 21.7157ZM8.62424 24.9862H13.6726C13.7139 24.9862 13.7488 25.0117 13.7488 25.0435V26.5387C13.7488 26.5706 13.7139 26.596 13.6726 26.596H8.62424C8.58296 26.596 8.54804 26.5706 8.54804 26.5387V25.0435C8.54804 25.0117 8.58296 24.9862 8.62424 24.9862ZM8.62424 21.7157H13.6726C13.7139 21.7157 13.7488 21.7411 13.7488 21.773V23.2682C13.7488 23.3 13.7139 23.3255 13.6726 23.3255H8.62424C8.58296 23.3255 8.54804 23.3 8.54804 23.2682V21.773C8.54804 21.7411 8.58296 21.7157 8.62424 21.7157ZM28.2969 22.0625H30.9925C31.0338 22.0625 31.0687 22.0975 31.0687 22.1388V24.8399C31.0687 24.8812 31.0338 24.9162 30.9925 24.9162H28.2969C28.2556 24.9162 28.2207 24.8812 28.2207 24.8399V22.1388C28.2207 22.0975 28.2556 22.0625 28.2969 22.0625ZM23.6645 22.0625H26.3601C26.4014 22.0625 26.4363 22.0975 26.4363 22.1388V24.8399C26.4363 24.8812 26.4014 24.9162 26.3601 24.9162H23.6645C23.6232 24.9162 23.5883 24.8812 23.5883 24.8399V22.1388C23.5883 22.0975 23.6232 22.0625 23.6645 22.0625ZM19.0321 22.0625H21.7277C21.769 22.0625 21.8039 22.0975 21.8039 22.1388V24.8399C21.8039 24.8812 21.769 24.9162 21.7277 24.9162H19.0321C18.9908 24.9162 18.9559 24.8812 18.9559 24.8399V22.1388C18.9559 22.0975 18.9908 22.0625 19.0321 22.0625ZM28.2969 16.8227H30.9925C31.0338 16.8227 31.0687 16.8576 31.0687 16.899V19.6C31.0687 19.6414 31.0338 19.6764 30.9925 19.6764H28.2969C28.2556 19.6764 28.2207 19.6414 28.2207 19.6V16.899C28.2207 16.8545 28.2556 16.8227 28.2969 16.8227ZM23.6645 16.8227H26.3601C26.4014 16.8227 26.4363 16.8576 26.4363 16.899V19.6C26.4363 19.6414 26.4014 19.6764 26.3601 19.6764H23.6645C23.6232 19.6764 23.5883 19.6414 23.5883 19.6V16.899C23.5883 16.8545 23.6232 16.8227 23.6645 16.8227ZM19.0321 16.8227H21.7277C21.769 16.8227 21.8039 16.8576 21.8039 16.899V19.6C21.8039 19.6414 21.769 19.6764 21.7277 19.6764H19.0321C18.9908 19.6764 18.9559 19.6414 18.9559 19.6V16.899C18.9559 16.8545 18.9908 16.8227 19.0321 16.8227Z" fill="#1A1F36"/>
</g>
<defs>
<clipPath id="clip0_511_63">
<rect width="39.0543" height="36.7055" fill="white" transform="translate(5.54498 6.44775)"/>
</clipPath>
</defs>
</svg>
