<svg width="50" height="50" viewBox="0 0 50 50" fill="none" xmlns="http://www.w3.org/2000/svg">
<path d="M16.7679 35.3373L13.7566 38.2613L13.6508 38.3545C14.0513 39.1721 14.1497 40.1039 13.9289 40.9864C13.7081 41.869 13.1821 42.6461 12.4432 43.1813C11.7043 43.7166 10.7996 43.9758 9.88779 43.9136C8.97601 43.8514 8.11534 43.4717 7.45671 42.8411C6.79809 42.2106 6.38356 41.3694 6.28582 40.465C6.18809 39.5607 6.41338 38.651 6.9222 37.8955C7.43102 37.1399 8.19087 36.5868 9.06851 36.333C9.94614 36.0793 10.8855 36.1411 11.7219 36.5078C11.7675 36.4459 11.8179 36.3877 11.8725 36.3336L14.4118 33.8713C14.6821 34.1214 14.9704 34.3515 15.2745 34.5598C15.7394 34.8773 16.2407 35.1384 16.7679 35.3373ZM31.4665 16.1531C31.8421 16.1633 32.214 16.2302 32.5693 16.3516C33.3633 16.6293 34.0665 17.1164 34.604 17.7609C35.1951 18.4473 35.5676 19.2931 35.6743 20.1908C35.7192 20.6137 35.7014 21.0408 35.6214 21.4584C36.0007 21.8022 36.3258 22.2009 36.5858 22.641C36.9881 23.3096 37.1939 24.0771 37.18 24.8563C37.1507 25.679 36.8664 26.4727 36.3661 27.1283C36.0097 27.6 35.5781 28.0105 35.0883 28.3432C35.1288 29.4118 34.8236 30.4652 34.2174 31.3482C33.6427 32.2091 32.7615 32.8212 31.7514 33.0613C31.4531 34.0059 30.8102 34.8051 29.9492 35.3013C29.0883 35.7976 28.0718 35.9549 27.1001 35.7423C26.289 35.5186 25.599 34.9861 25.1794 34.2601C24.9355 34.6522 24.615 34.9915 24.2368 35.258C23.8586 35.5245 23.4305 35.7126 22.9778 35.8112C22.462 35.9064 21.9316 35.8903 21.4226 35.7638C20.9136 35.6373 20.4378 35.4035 20.0275 35.0781L19.9665 35.0255C19.3548 34.5467 18.9163 33.8829 18.7172 33.1342C18.4051 33.112 18.0973 33.0494 17.8016 32.9479C17.0244 32.6734 16.3328 32.2015 15.7954 31.5791C15.2158 30.9182 14.8388 30.1058 14.7088 29.2382C14.6427 28.7739 14.6537 28.3019 14.7414 27.841C14.4037 27.5306 14.1094 27.1765 13.8665 26.7881L13.8339 26.7071C13.4324 26.0493 13.2211 25.2939 13.2235 24.5242C13.2379 23.6677 13.5226 22.8375 14.0374 22.151C14.3788 21.6856 14.7906 21.2758 15.2582 20.936C15.2582 20.8091 15.2582 20.6836 15.2582 20.5594C15.2935 19.4814 15.6822 18.4445 16.3651 17.607C16.9558 16.8739 17.7897 16.3742 18.7172 16.1977C18.7463 16.0851 18.7816 15.9743 18.823 15.8656C19.1308 15.0665 19.7055 14.3972 20.4507 13.9702C21.2052 13.5222 22.099 13.3665 22.9615 13.5328C23.828 13.7172 24.5884 14.2299 25.0817 14.9625C25.5756 14.2305 26.3357 13.718 27.2018 13.5328C27.9861 13.3786 28.7997 13.4943 29.5092 13.8609C30.1996 14.2078 30.7674 14.756 31.1369 15.4322C31.261 15.6606 31.3579 15.9025 31.4259 16.1531H31.4665ZM26.1234 16.8173V31.7208C26.1913 31.8252 26.2371 31.9424 26.2577 32.065C26.4612 33.28 26.9862 33.8956 27.5721 34.0535C27.8656 34.1136 28.1688 34.1085 28.46 34.0385C28.7512 33.9685 29.0233 33.8353 29.2569 33.6485C29.4958 33.4976 29.697 33.2944 29.8451 33.0544C29.9932 32.8143 30.0843 32.5439 30.1114 32.2635C30.1114 31.652 29.6516 30.9513 28.4023 30.3155C28.2992 30.2623 28.2076 30.1894 28.1327 30.101C28.0579 30.0126 28.0013 29.9104 27.9661 29.8002C27.931 29.69 27.918 29.574 27.9279 29.4588C27.9378 29.3437 27.9704 29.2315 28.0239 29.1289C28.0773 29.0262 28.1505 28.9351 28.2394 28.8606C28.3282 28.7861 28.4309 28.7298 28.5416 28.6948C28.6523 28.6598 28.7689 28.6469 28.8846 28.6568C29.0004 28.6666 29.113 28.6991 29.2162 28.7523C30.6323 29.4731 31.4055 30.3722 31.7188 31.2551C32.1538 31.0619 32.5239 30.7484 32.785 30.352C33.2395 29.6834 33.4307 28.8718 33.3222 28.0719C33.2827 27.892 33.3007 27.7043 33.3736 27.5351C33.4466 27.3659 33.5709 27.2237 33.7291 27.1283C34.2034 26.8665 34.6189 26.5109 34.9499 26.0834C35.2344 25.7164 35.3978 25.2708 35.4179 24.8077C35.4228 24.3571 35.3016 23.914 35.0679 23.5279C34.8283 23.1284 34.5099 22.7813 34.132 22.5074C33.9717 22.3989 33.8515 22.2412 33.7898 22.0584C33.7281 21.8756 33.7282 21.6776 33.7902 21.4949C33.9144 21.1347 33.9575 20.7517 33.9163 20.3731C33.8485 19.8263 33.619 19.3118 33.2571 18.8949C32.9229 18.4942 32.4875 18.1894 31.9956 18.012C31.8095 17.948 31.6145 17.9139 31.4177 17.9108C31.259 18.3566 31.0174 18.7688 30.7056 19.1257C30.6313 19.2137 30.5403 19.2863 30.4378 19.3394C30.3354 19.3924 30.2234 19.4248 30.1083 19.4348C29.9933 19.4447 29.8774 19.4321 29.7672 19.3974C29.6571 19.3628 29.5549 19.307 29.4664 19.233C29.378 19.1591 29.3051 19.0686 29.2518 18.9666C29.1985 18.8646 29.1659 18.7532 29.1559 18.6387C29.1459 18.5242 29.1586 18.4088 29.1934 18.2992C29.2282 18.1896 29.2843 18.0879 29.3586 17.9999C29.582 17.772 29.7272 17.4796 29.7733 17.1645C29.8193 16.8495 29.7639 16.528 29.615 16.2463C29.4113 15.8864 29.1036 15.5958 28.7319 15.412C28.3781 15.224 27.9706 15.1612 27.5762 15.2338C27.0146 15.3512 26.4693 15.821 26.1153 16.8011L26.1234 16.8173ZM29.5906 21.831C29.4006 21.6946 29.2729 21.4887 29.2355 21.2586C29.1981 21.0284 29.2541 20.793 29.3912 20.6039C29.5282 20.4149 29.7351 20.2878 29.9664 20.2506C30.1976 20.2133 30.4342 20.2691 30.6242 20.4055C30.7739 20.5141 30.9179 20.6303 31.0555 20.7538C32.0113 21.6053 32.6014 22.79 32.7036 24.0625C32.7978 25.3158 32.4384 26.5612 31.6904 27.5737C31.5788 27.7283 31.4592 27.877 31.3323 28.0192C31.1758 28.1927 30.9564 28.2972 30.7225 28.3097C30.4886 28.3223 30.2593 28.2418 30.085 28.0861C29.9107 27.9303 29.8057 27.712 29.7931 27.4792C29.7805 27.2465 29.8614 27.0182 30.0178 26.8448C30.1196 26.7314 30.201 26.6301 30.2701 26.541C30.7605 25.8628 30.9927 25.0331 30.9253 24.2002C30.8596 23.3775 30.4777 22.6116 29.8591 22.0619C29.7696 21.9809 29.6719 21.9039 29.5743 21.831H29.5906ZM24.3533 17.5949H24.3329H24.2597C23.926 16.2544 23.2912 15.6388 22.6319 15.5051C22.1936 15.4282 21.7421 15.5132 21.3623 15.7441C20.9715 15.9641 20.6673 16.3096 20.4996 16.7241C20.3042 17.2547 20.4263 17.9108 21.1018 18.5344C21.1865 18.6126 21.2549 18.7066 21.3031 18.8111C21.3513 18.9156 21.3784 19.0285 21.3827 19.1434C21.3871 19.2583 21.3686 19.3729 21.3285 19.4807C21.2883 19.5885 21.2272 19.6874 21.1486 19.7717C21.0701 19.856 20.9756 19.924 20.8706 19.972C20.7656 20.02 20.6522 20.0469 20.5367 20.0512C20.4213 20.0555 20.3061 20.0372 20.1978 19.9972C20.0895 19.9572 19.9901 19.8964 19.9054 19.8182C19.4176 19.3884 19.0431 18.8461 18.8148 18.2388C18.3989 18.3875 18.0336 18.65 17.7609 18.9961C17.3253 19.5364 17.0782 20.2031 17.0569 20.8955C17.0606 21.0229 17.0715 21.15 17.0894 21.2762C17.1124 21.4443 17.0863 21.6154 17.0141 21.7691C16.942 21.9228 16.8268 22.0526 16.6825 22.1429C16.221 22.413 15.8162 22.7692 15.4902 23.1918C15.1909 23.5798 15.0215 24.0515 15.0059 24.5404C15.009 24.986 15.1327 25.4225 15.364 25.804L15.4006 25.8566C15.6296 26.22 15.9267 26.5362 16.2756 26.7881C16.4319 26.8969 16.5487 27.053 16.6088 27.2332C16.669 27.4134 16.6691 27.6081 16.6092 27.7884C16.4718 28.1779 16.4299 28.5945 16.4872 29.0033C16.5709 29.5354 16.8052 30.0327 17.1627 30.437C17.4885 30.8212 17.9093 31.1143 18.3835 31.2875C18.5236 31.3343 18.6681 31.3669 18.8148 31.3847C19.1241 30.4289 19.938 29.4893 21.4192 28.7523C21.6281 28.6448 21.8712 28.6244 22.0952 28.6954C22.3192 28.7664 22.5057 28.9231 22.6136 29.1309C22.7215 29.3388 22.7421 29.5807 22.6707 29.8037C22.5994 30.0266 22.442 30.2121 22.2331 30.3196C20.9146 30.9878 20.4182 31.7411 20.4182 32.3931C20.4291 32.6396 20.4946 32.8807 20.61 33.0991C20.7254 33.3175 20.8877 33.5079 21.0856 33.6566L21.1303 33.6931C21.3384 33.8638 21.5808 33.9882 21.8412 34.058C22.1016 34.1279 22.3739 34.1415 22.6401 34.0981C23.2952 33.9644 23.9301 33.3489 24.2678 32.0002C24.2903 31.9131 24.326 31.8298 24.3736 31.7532V17.5949H24.3533ZM18.9939 20.9117C19.074 20.8212 19.1721 20.7481 19.2819 20.697C19.3918 20.646 19.511 20.6182 19.6322 20.6152C19.7534 20.6123 19.8739 20.6343 19.9861 20.6799C20.0983 20.7256 20.1999 20.7938 20.2843 20.8804C20.3688 20.9669 20.4343 21.0699 20.4768 21.1829C20.5193 21.2959 20.5379 21.4164 20.5314 21.5369C20.5248 21.6574 20.4933 21.7752 20.4388 21.883C20.3843 21.9907 20.308 22.0861 20.2147 22.1631C19.6278 22.7368 19.2829 23.5117 19.2503 24.3298C19.2213 25.1883 19.511 26.0274 20.0641 26.6868C20.2038 26.869 20.2664 27.0982 20.2386 27.3257C20.2109 27.5531 20.095 27.7608 19.9156 27.9044C19.7363 28.0481 19.5076 28.1163 19.2785 28.0946C19.0493 28.073 18.8377 27.9631 18.6887 27.7884C17.873 26.7963 17.449 25.542 17.4964 24.261C17.544 22.9952 18.0787 21.7961 18.9898 20.9117H18.9939ZM3.8965 20.6485C4.69928 20.6498 5.48205 20.8979 6.13765 21.359C6.79326 21.8201 7.28967 22.4715 7.55894 23.2242C7.61041 23.2202 7.66211 23.2202 7.71358 23.2242L10.7575 23.1837C10.6692 23.6144 10.6215 24.0523 10.615 24.4918C10.6129 24.9461 10.6579 25.3994 10.7493 25.8444L7.75427 25.8849C7.68651 25.8891 7.61856 25.8891 7.5508 25.8849C7.30203 26.5482 6.87563 27.1311 6.31779 27.5705C5.75995 28.0099 5.09194 28.289 4.38612 28.3775C3.6803 28.4661 2.96359 28.3608 2.31362 28.0729C1.66366 27.7851 1.10522 27.3258 0.698801 26.7447C0.292385 26.1636 0.0534855 25.4829 0.00798364 24.7764C-0.0375182 24.0698 0.112112 23.3644 0.440665 22.7364C0.769218 22.1084 1.26417 21.5819 1.8719 21.2139C2.47962 20.8458 3.17696 20.6503 3.88836 20.6485H3.8965ZM10.2081 6.00009C11.242 6.00009 12.2336 6.40885 12.9647 7.13645C13.6958 7.86405 14.1066 8.85089 14.1066 9.87987C14.1095 10.5691 13.9253 11.2463 13.5735 11.84L16.2389 14.3671L16.1168 14.44C15.4492 14.8476 14.855 15.3637 14.3589 15.9668C14.306 16.0276 14.2571 16.0924 14.2083 16.1531L11.7016 13.7799C11.6225 13.7063 11.5528 13.6234 11.494 13.5328C10.9578 13.7238 10.3861 13.7954 9.81902 13.7428C9.25197 13.6902 8.70339 13.5145 8.21187 13.2283C7.72035 12.942 7.29783 12.552 6.97401 12.0858C6.65019 11.6196 6.43295 11.0884 6.33756 10.5296C6.24217 9.97084 6.27096 9.39806 6.42189 8.85155C6.57282 8.30504 6.84223 7.79808 7.21118 7.36632C7.58012 6.93456 8.03964 6.5885 8.55741 6.35246C9.07517 6.11642 9.63862 5.99615 10.2081 6.00009ZM39.9756 36.2405C40.8236 36.2382 41.6492 36.5111 42.3272 37.0179C43.0052 37.5247 43.4988 38.2377 43.7329 39.0488C43.9671 39.8599 43.9292 40.7248 43.6249 41.5125C43.3206 42.3002 42.7665 42.9677 42.0467 43.4137C41.3269 43.8598 40.4805 44.0601 39.636 43.9843C38.7915 43.9085 37.9948 43.5608 37.3667 42.9938C36.7387 42.4268 36.3135 41.6714 36.1557 40.8423C35.9979 40.0131 36.116 39.1554 36.4922 38.399L36.3905 38.3099L33.4524 35.5641C33.5501 35.4264 33.6396 35.2847 33.725 35.1348C34.0309 34.9823 34.326 34.8091 34.6081 34.6165C34.9422 34.3818 35.2553 34.1189 35.5441 33.8308L38.2502 36.3215C38.3244 36.3929 38.3912 36.4716 38.4496 36.5564C38.9382 36.3478 39.4643 36.2403 39.996 36.2405H39.9756ZM39.9756 6.42938C40.9883 6.46194 41.9485 6.88518 42.6533 7.6096C43.3581 8.33402 43.7521 9.30284 43.7521 10.3112C43.7521 11.3195 43.3581 12.2883 42.6533 13.0128C41.9485 13.7372 40.9883 14.1604 39.9756 14.193C39.4238 14.1944 38.8783 14.0769 38.3764 13.8487C38.3194 13.9322 38.2539 14.0095 38.181 14.0796L36.3742 15.8089C36.008 15.4125 35.5986 15.0579 35.1534 14.7519C34.8438 14.5391 34.5187 14.3496 34.1808 14.1849L36.3172 12.1599C36.3663 12.1111 36.4194 12.0664 36.476 12.0263C36.1825 11.4345 36.0455 10.778 36.078 10.1188C36.1106 9.45964 36.3115 8.81963 36.6619 8.25931C37.0122 7.69898 37.5004 7.23686 38.0803 6.91665C38.6601 6.59645 39.3125 6.42873 39.9756 6.42938ZM46.1041 20.6485C46.8167 20.6489 47.5156 20.8438 48.1248 21.2119C48.7339 21.58 49.2301 22.1072 49.5592 22.7362C49.8884 23.3653 50.038 24.0721 49.9918 24.7798C49.9456 25.4875 49.7053 26.1691 49.2971 26.7505C48.889 27.3319 48.3284 27.7907 47.6766 28.0773C47.0247 28.3638 46.3063 28.467 45.5996 28.3757C44.8929 28.2844 44.2248 28.0021 43.6681 27.5593C43.1113 27.1166 42.6871 26.5305 42.4417 25.8647C42.3807 25.8689 42.3195 25.8689 42.2585 25.8647H39.707C39.7606 25.5514 39.7918 25.2347 39.8006 24.917C39.8203 24.3283 39.7587 23.7396 39.6175 23.1675H42.2585C42.3195 23.1633 42.3807 23.1633 42.4417 23.1675C42.7173 22.4215 43.2163 21.7777 43.8712 21.3229C44.5261 20.8681 45.3055 20.6242 46.1041 20.6242V20.6485Z" fill="#1A1F36"/>
</svg>
