<svg width="25" height="25" viewBox="0 0 25 25" fill="none" xmlns="http://www.w3.org/2000/svg">
<g clip-path="url(#clip0_450_4247)">
<path d="M24.2781 12.3955C24.2781 5.76809 18.9055 0.395508 12.2781 0.395508C5.65065 0.395508 0.278076 5.76809 0.278076 12.3955C0.278076 18.385 4.66628 23.3495 10.4031 24.2497V15.8643H7.3562V12.3955H10.4031V9.75176C10.4031 6.74426 12.1946 5.08301 14.9357 5.08301C16.2482 5.08301 17.6218 5.31738 17.6218 5.31738V8.27051H16.1087C14.6181 8.27051 14.1531 9.19559 14.1531 10.1455V12.3955H17.4812L16.9492 15.8643H14.1531V24.2497C19.8899 23.3495 24.2781 18.385 24.2781 12.3955Z" fill="white"/>
</g>
<defs>
<clipPath id="clip0_450_4247">
<rect width="24" height="24" fill="white" transform="translate(0.278076 0.395508)"/>
</clipPath>
</defs>
</svg>
