<svg width="65" height="64" viewBox="0 0 65 64" fill="none" xmlns="http://www.w3.org/2000/svg">
<path fill-rule="evenodd" clip-rule="evenodd" d="M32.8107 8L35.6645 10.315L39.2948 9.73263L40.6003 13.1688L44.0364 14.4743L43.454 18.1046L45.7691 20.9584L43.454 23.8121L44.0364 27.4424L40.6003 28.7479L39.2948 32.1841L35.6645 31.6017L32.8107 33.9167L29.957 31.6017L26.3267 32.1841L25.0212 28.7479L21.585 27.4424L22.1674 23.8121L19.8524 20.9584L22.1674 18.1046L21.585 14.4743L25.0212 13.1688L26.3267 9.73263L29.957 10.315L32.8107 8ZM35.2228 49.1464H45.8564C46.7106 48.2971 47.6473 47.4138 48.5937 46.5159C50.5884 44.628 52.6705 42.6575 54.8108 40.192C57.2569 37.3723 57.5189 36.3967 58.2615 33.6352C58.4023 33.1159 58.5576 32.5335 58.7614 31.8104L60.033 27.3405L60.0475 27.2919C60.727 25.3021 60.7804 23.9868 60.4989 23.2297C60.4115 22.9967 60.2999 22.8414 60.1689 22.7589C60.0669 22.691 59.931 22.6667 59.7903 22.6813C59.4603 22.7153 59.0866 22.9239 58.7468 23.2976L54.971 32.2908C54.937 32.3733 54.8885 32.451 54.8351 32.5189C54.6118 32.9218 54.3109 33.3149 53.9226 33.6886L47.2251 41.1578C46.8611 41.5655 46.235 41.5995 45.8322 41.2355C45.4245 40.8715 45.3905 40.2454 45.7545 39.8426C46.6621 38.8331 53.6994 31.9268 53.3402 30.3786C52.8937 28.4713 48.0987 33.3683 47.526 33.873L47.5114 33.8876C44.7013 36.5472 43.4929 37.1781 41.2895 38.3284C40.8284 38.571 40.3237 38.8331 39.6976 39.1728C39.4501 39.3087 39.2074 39.4737 38.9696 39.6533C38.7172 39.8475 38.4745 40.0464 38.2464 40.2406C37.0816 41.2209 36.4701 42.0169 36.1207 42.8953C35.7567 43.8078 35.6256 44.9192 35.4461 46.4431C35.3733 47.0546 35.3199 47.6661 35.2762 48.2728C35.2519 48.5689 35.2374 48.8601 35.2228 49.1464ZM30.3986 49.1464H19.7602C18.906 48.2971 17.9693 47.4138 17.018 46.5159C15.0233 44.628 12.9413 42.6575 10.8009 40.192C8.35487 37.3723 8.09279 36.3967 7.35023 33.6352C7.20949 33.1159 7.05418 32.5335 6.85034 31.8104L5.57877 27.3405L5.56421 27.2919C4.88475 25.3021 4.83136 23.9868 5.11286 23.2297C5.20022 22.9967 5.31184 22.8414 5.44288 22.7589C5.5448 22.691 5.68069 22.6667 5.82144 22.6813C6.15146 22.7153 6.52517 22.9239 6.8649 23.2976L10.6408 32.2908C10.6748 32.3733 10.7233 32.451 10.7767 32.5189C10.9999 32.9218 11.3008 33.3149 11.6891 33.6886L18.3867 41.1578C18.7507 41.5655 19.3767 41.5995 19.7796 41.2355C20.1873 40.8715 20.2212 40.2454 19.8572 39.8426C18.9594 38.8283 11.9221 31.922 12.2812 30.3738C12.7277 28.4664 17.5228 33.3634 18.0955 33.8682L18.11 33.8827C20.9201 36.5423 22.1286 37.1733 24.332 38.3235C24.793 38.5662 25.2978 38.8283 25.9239 39.168C26.1714 39.3039 26.4141 39.4689 26.6519 39.6485C26.9042 39.8426 27.1469 40.0416 27.375 40.2357C28.5398 41.2161 29.1513 42.012 29.5008 42.8905C29.8648 43.8029 29.9958 44.9143 30.1754 46.4383C30.2482 47.0498 30.3016 47.6613 30.3452 48.268C30.3695 48.5689 30.3841 48.8601 30.3986 49.1464ZM17.285 49.4861C17.1345 49.6609 17.0423 49.889 17.0423 50.1365V56.0284C17.0423 56.5768 17.4888 57.0185 18.0324 57.0185H31.4178C31.9662 57.0185 32.4079 56.572 32.4079 56.0284V50.0831C32.4079 49.4522 32.3691 48.7727 32.3254 48.1418C32.2817 47.4963 32.2235 46.8556 32.1507 46.2199C31.9565 44.5552 31.8109 43.337 31.345 42.1673C30.8645 40.9686 30.0929 39.9348 28.6611 38.7263C28.3991 38.5031 28.1321 38.2798 27.8506 38.0711C27.5546 37.8479 27.2343 37.6343 26.8751 37.4354C26.2927 37.1199 25.7491 36.8335 25.2541 36.5715C23.2157 35.5037 22.0995 34.9213 19.4738 32.4364C19.4544 32.417 19.4301 32.3976 19.4107 32.3831L16.8773 30.1457C15.596 28.646 13.0577 26.86 11.2086 28.481C10.2234 26.1368 9.25273 21.0263 6.03013 20.7108C5.44288 20.6526 4.87504 20.7788 4.38 21.0991C3.90923 21.4049 3.52097 21.8805 3.2783 22.5357C2.85121 23.6762 2.86092 25.4477 3.69569 27.8986L4.95755 32.3394C5.14198 32.98 5.30213 33.5964 5.45259 34.14C6.27765 37.2218 6.56885 38.3138 9.32068 41.4782C11.4998 43.9873 13.6353 46.0063 15.6785 47.9428C16.2075 48.4572 16.7414 48.9668 17.285 49.4861ZM19.1778 51.1266C19.3088 51.1557 19.4447 51.1557 19.5806 51.1266H30.4229V55.0383H19.0225V51.1266H19.1778ZM48.3365 49.4861C48.4869 49.6609 48.5791 49.889 48.5791 50.1365V56.0284C48.5791 56.5768 48.1375 57.0185 47.5891 57.0185H34.2085C33.6601 57.0185 33.2184 56.572 33.2184 56.0284V50.0831C33.2184 50.0491 33.2184 50.0103 33.2233 49.9763C33.2378 49.3405 33.2621 48.7242 33.3009 48.1418C33.3446 47.4963 33.4028 46.8556 33.4756 46.2199C33.6698 44.5552 33.8154 43.337 34.2813 42.1673C34.7618 40.9686 35.5334 39.9348 36.9652 38.7263C37.2272 38.5031 37.4942 38.2798 37.7757 38.0711C38.0717 37.8479 38.392 37.6343 38.7512 37.4354C39.3336 37.1199 39.8771 36.8335 40.3722 36.5715C42.4106 35.5037 43.5268 34.9213 46.1525 32.4364C46.1719 32.417 46.1962 32.3976 46.2156 32.3831L48.749 30.1457C50.0303 28.646 52.5686 26.86 54.4177 28.481C54.8982 27.3308 56.558 22.8269 57.1307 22.1377C57.8393 21.2884 58.7371 20.7933 59.5962 20.706C60.1834 20.6477 60.7513 20.7739 61.2463 21.0942C61.7171 21.4 62.1053 21.8756 62.348 22.5308C62.7751 23.6714 62.7654 25.4428 61.9306 27.8937L60.6687 32.3345C60.4843 32.9752 60.3242 33.5915 60.1737 34.1351C59.3486 37.217 59.0574 38.309 56.3056 41.4733C54.1265 43.9825 51.9959 46.0015 49.9478 47.9379C49.4139 48.4572 48.88 48.9668 48.3365 49.4861ZM46.4437 51.1266C46.3126 51.1557 46.1768 51.1557 46.0409 51.1266H35.1986V55.0383H46.599V51.1266H46.4437ZM32.8107 16.338L34.1454 19.5994L37.664 19.8615L34.9753 22.1377L35.8149 25.5641L32.8156 23.7053L29.8162 25.5641L30.6559 22.1426L27.9574 19.8664L31.4761 19.6043L32.8107 16.3428V16.338ZM32.8107 13.6347C36.8535 13.6347 40.1295 16.9155 40.1295 20.9535C40.1295 24.9963 36.8487 28.2723 32.8107 28.2723C28.7679 28.2723 25.4919 24.9915 25.4919 20.9535C25.4919 16.9155 28.7679 13.6347 32.8107 13.6347Z" fill="#1A1F36"/>
</svg>
