<svg width="50" height="50" viewBox="0 0 50 50" fill="none" xmlns="http://www.w3.org/2000/svg">
<path d="M10.2681 34.4989C10.2681 35.1682 9.72583 35.706 9.0599 35.706C8.38997 35.706 7.85164 35.1642 7.85164 34.4989C7.85164 29.9058 9.71387 25.7469 12.7285 22.7353C15.7432 19.7237 19.9062 17.8633 24.504 17.8633C29.1017 17.8633 33.2648 19.7237 36.2795 22.7353C39.2941 25.7469 41.1563 29.9058 41.1563 34.4989C41.1563 35.1682 40.614 35.706 39.9481 35.706C39.2821 35.706 38.7398 35.1642 38.7398 34.4989C38.7398 30.5711 37.1488 27.0177 34.5728 24.4443C31.9967 21.8709 28.4398 20.2814 24.508 20.2814C20.5762 20.2814 17.0192 21.8748 14.4432 24.4443C11.8592 27.0177 10.2681 30.5751 10.2681 34.4989ZM35.0194 43C34.9556 41.0958 35.0632 41.0679 32.8341 40.2354C31.5262 39.7454 29.8554 39.1239 28.6551 38.379C27.2435 39.6856 26.3383 41.1795 26.3064 43H35.0194ZM13.9806 43C14.0444 41.0958 13.9368 41.0679 16.1659 40.2354C17.4738 39.7454 19.1446 39.1239 20.3449 38.379C21.7565 39.6856 22.6617 41.1795 22.6936 43H13.9806ZM21.6608 36.5824C21.7206 36.1004 20.2931 34.2719 20.0339 33.3915C19.4756 32.5071 19.2762 31.0969 19.8863 30.1608C20.1296 29.7903 20.0259 29.125 20.0259 28.6151C20.0259 23.5201 28.9622 23.5161 28.9622 28.6151C28.9622 29.2605 28.8146 29.7505 29.1655 30.2564C29.7517 31.1049 29.4487 32.6067 28.9542 33.3955C28.6392 34.3157 27.1438 36.0605 27.2475 36.5864C27.3352 39.1996 21.6409 39.112 21.6608 36.5824ZM49 21.0542L46.9504 23.6993L48.4058 26.711L45.2556 25.5796L42.8391 27.8941L42.9428 24.5518L39.9919 22.9703L43.206 22.0342L43.8001 18.7397L45.6823 21.5044L49 21.0542ZM38.5923 10.653L38.1417 13.9674L40.9091 15.8516L37.6153 16.4492L36.6782 19.66L35.0951 16.7121L31.7495 16.8156L34.0663 14.4016L32.9299 11.2505L35.9445 12.7045L38.5923 10.653ZM0 21.0542L3.31771 21.5044L5.20386 18.7397L5.802 22.0302L9.01603 22.9664L6.06519 24.5479L6.16886 27.8901L3.74837 25.5756L0.594157 26.707L2.04964 23.6954L0 21.0542ZM10.4077 10.653L13.0555 12.7006L16.0702 11.2465L14.9417 14.3936L17.2585 16.8077L13.9128 16.7041L12.3298 19.652L11.3927 16.4412L8.09489 15.8476L10.8623 13.9634L10.4077 10.653ZM24.5 7L25.7681 10.0953L29.1057 10.3423L26.5536 12.5054L27.3512 15.756L24.504 13.9952L21.6568 15.756L22.4543 12.5054L19.8943 10.3423L23.2319 10.0953L24.5 7Z" fill="#1A1F36"/>
</svg>
