<svg width="25" height="25" viewBox="0 0 25 25" fill="none" xmlns="http://www.w3.org/2000/svg">
<g clip-path="url(#clip0_450_4251)">
<path d="M12.2781 2.55645C15.4843 2.55645 15.864 2.57051 17.125 2.62676C18.2968 2.67832 18.9296 2.8752 19.3515 3.03926C19.9093 3.25488 20.3125 3.51738 20.7296 3.93457C21.1515 4.35645 21.4093 4.75488 21.625 5.3127C21.789 5.73457 21.9859 6.37207 22.0375 7.53926C22.0937 8.80488 22.1078 9.18457 22.1078 12.3861C22.1078 15.5924 22.0937 15.9721 22.0375 17.233C21.9859 18.4049 21.789 19.0377 21.625 19.4596C21.4093 20.0174 21.1468 20.4205 20.7296 20.8377C20.3078 21.2596 19.9093 21.5174 19.3515 21.733C18.9296 21.8971 18.2921 22.0939 17.125 22.1455C15.8593 22.2018 15.4796 22.2158 12.2781 22.2158C9.07183 22.2158 8.69214 22.2018 7.4312 22.1455C6.25933 22.0939 5.62651 21.8971 5.20464 21.733C4.64683 21.5174 4.2437 21.2549 3.82651 20.8377C3.40464 20.4158 3.14683 20.0174 2.9312 19.4596C2.76714 19.0377 2.57026 18.4002 2.5187 17.233C2.46245 15.9674 2.44839 15.5877 2.44839 12.3861C2.44839 9.17988 2.46245 8.80019 2.5187 7.53926C2.57026 6.36738 2.76714 5.73457 2.9312 5.3127C3.14683 4.75488 3.40933 4.35176 3.82651 3.93457C4.24839 3.5127 4.64683 3.25488 5.20464 3.03926C5.62651 2.8752 6.26401 2.67832 7.4312 2.62676C8.69214 2.57051 9.07183 2.55645 12.2781 2.55645ZM12.2781 0.395508C9.02026 0.395508 8.61245 0.40957 7.33276 0.46582C6.05776 0.52207 5.1812 0.72832 4.42183 1.02363C3.62964 1.33301 2.95933 1.74082 2.2937 2.41113C1.62339 3.07676 1.21558 3.74707 0.906201 4.53457C0.610889 5.29863 0.404639 6.17051 0.348389 7.44551C0.292139 8.72988 0.278076 9.1377 0.278076 12.3955C0.278076 15.6533 0.292139 16.0611 0.348389 17.3408C0.404639 18.6158 0.610889 19.4924 0.906201 20.2518C1.21558 21.0439 1.62339 21.7143 2.2937 22.3799C2.95933 23.0455 3.62964 23.458 4.41714 23.7627C5.1812 24.058 6.05308 24.2643 7.32808 24.3205C8.60776 24.3768 9.01558 24.3908 12.2734 24.3908C15.5312 24.3908 15.939 24.3768 17.2187 24.3205C18.4937 24.2643 19.3703 24.058 20.1296 23.7627C20.9171 23.458 21.5875 23.0455 22.2531 22.3799C22.9187 21.7143 23.3312 21.0439 23.6359 20.2564C23.9312 19.4924 24.1375 18.6205 24.1937 17.3455C24.25 16.0658 24.264 15.658 24.264 12.4002C24.264 9.14238 24.25 8.73457 24.1937 7.45488C24.1375 6.17988 23.9312 5.30332 23.6359 4.54395C23.3406 3.74707 22.9328 3.07676 22.2625 2.41113C21.5968 1.74551 20.9265 1.33301 20.139 1.02832C19.375 0.733008 18.5031 0.526758 17.2281 0.470508C15.9437 0.40957 15.5359 0.395508 12.2781 0.395508Z" fill="white"/>
<path d="M12.2781 6.23145C8.87495 6.23145 6.11401 8.99238 6.11401 12.3955C6.11401 15.7986 8.87495 18.5596 12.2781 18.5596C15.6812 18.5596 18.4421 15.7986 18.4421 12.3955C18.4421 8.99238 15.6812 6.23145 12.2781 6.23145ZM12.2781 16.3939C10.0703 16.3939 8.27964 14.6033 8.27964 12.3955C8.27964 10.1877 10.0703 8.39707 12.2781 8.39707C14.4859 8.39707 16.2765 10.1877 16.2765 12.3955C16.2765 14.6033 14.4859 16.3939 12.2781 16.3939Z" fill="white"/>
<path d="M20.125 5.98692C20.125 6.78379 19.4781 7.42598 18.6859 7.42598C17.889 7.42598 17.2468 6.7791 17.2468 5.98692C17.2468 5.19004 17.8937 4.54785 18.6859 4.54785C19.4781 4.54785 20.125 5.19473 20.125 5.98692Z" fill="white"/>
</g>
<defs>
<clipPath id="clip0_450_4251">
<rect width="24" height="24" fill="white" transform="translate(0.278076 0.395508)"/>
</clipPath>
</defs>
</svg>
