<svg width="64" height="64" viewBox="0 0 64 64" fill="none" xmlns="http://www.w3.org/2000/svg">
<rect width="64" height="64" fill="white"/>
<g clip-path="url(#clip0_450_4173)">
<path d="M29.2647 9C34.8551 9 39.9246 11.2529 43.597 14.8751C47.2691 18.5123 49.5287 23.5185 49.5287 29.0698C49.5287 33.1191 48.3097 36.9035 46.2282 40.0544L52.2011 46.5014C53.7417 48.1643 53.6274 50.7651 51.9469 52.2863C50.2881 53.788 47.7282 53.6695 46.2153 52.0209L40.49 45.7823C37.2779 47.9027 33.4123 49.1399 29.2647 49.1399C23.6744 49.1399 18.6045 46.8867 14.9324 43.2648C11.26 39.6272 9 34.6206 9 29.0698C9 23.5331 11.2747 18.5123 14.9324 14.8751C18.6045 11.2383 23.6596 9 29.2647 9ZM23.1872 21.6905C26.1403 18.4629 29.5501 16.7098 32.1064 19.5796C32.7766 19.611 33.376 19.8308 33.8769 20.2987C34.928 21.2776 35.0913 23.1093 34.6105 24.5641V25.8339C34.936 26.0461 35.1465 26.4433 35.2418 26.8951C35.3053 27.186 35.3215 27.5083 35.289 27.8149C35.258 28.1335 35.1783 28.436 35.0513 28.6879C34.8691 29.0458 34.5905 29.297 34.214 29.352C33.844 29.7413 33.483 30.158 33.1621 30.5589C32.8083 30.9992 32.5067 31.4158 32.2969 31.758C32.1336 32.0215 32.1854 32.1945 32.2451 32.391C32.2723 32.4891 32.3041 32.5913 32.3241 32.7013C32.9716 32.8387 33.5548 32.9488 34.0791 33.0472C37.4095 33.6642 39.3746 33.857 39.3746 38.15C39.3746 38.3702 39.1958 38.5472 38.9736 38.5472H20.6029C20.3807 38.5472 20.2019 38.3702 20.2019 38.15C20.2019 33.857 22.1632 33.6646 25.4974 33.0472C26.0254 32.9488 26.6166 32.8387 27.2637 32.7013C27.2875 32.6149 27.3155 32.5363 27.3431 32.4576C27.4104 32.269 27.478 32.0803 27.2796 31.7621C27.069 31.4199 26.7674 31.0037 26.4144 30.563C26.0927 30.1621 25.7314 29.7455 25.3625 29.3561C24.9852 29.3015 24.7074 29.0495 24.5248 28.692C24.3978 28.4442 24.3185 28.1376 24.2867 27.8194C24.2587 27.5128 24.2746 27.1905 24.3343 26.8993C24.4296 26.447 24.636 26.054 24.9573 25.8417L24.5245 25.586C24.4096 24.3162 24.7467 22.1109 23.1826 21.6943L23.1872 21.6905ZM41.9914 16.4653C38.7351 13.2407 34.2303 11.2383 29.2647 11.2383C24.2988 11.2383 19.794 13.241 16.5381 16.4653C13.2822 19.69 11.26 24.1515 11.26 29.0698C11.26 33.988 13.2822 38.4495 16.5381 41.6742C19.794 44.8989 24.2988 46.9016 29.2647 46.9016C34.2303 46.9016 38.7351 44.8989 41.9914 41.6742C45.2469 38.4495 47.2691 33.988 47.2691 29.0698C47.2691 24.1515 45.2469 19.69 41.9914 16.4653Z" fill="#1A1F36"/>
</g>
<defs>
<clipPath id="clip0_450_4173">
<rect width="46" height="46" fill="white" transform="translate(9 9)"/>
</clipPath>
</defs>
</svg>
