<svg width="25" height="25" viewBox="0 0 25 25" fill="none" xmlns="http://www.w3.org/2000/svg">
<g clip-path="url(#clip0_450_4256)">
<path d="M22.5015 0.395508H2.04995C1.07026 0.395508 0.278076 1.16895 0.278076 2.1252V22.6611C0.278076 23.6174 1.07026 24.3955 2.04995 24.3955H22.5015C23.4812 24.3955 24.2781 23.6174 24.2781 22.6658V2.1252C24.2781 1.16895 23.4812 0.395508 22.5015 0.395508ZM7.39839 20.8471H3.83589V9.39082H7.39839V20.8471ZM5.61714 7.82988C4.47339 7.82988 3.54995 6.90645 3.54995 5.76738C3.54995 4.62832 4.47339 3.70488 5.61714 3.70488C6.7562 3.70488 7.67964 4.62832 7.67964 5.76738C7.67964 6.90176 6.7562 7.82988 5.61714 7.82988ZM20.7296 20.8471H17.1718V15.2783C17.1718 13.9518 17.1484 12.2408 15.3203 12.2408C13.4687 12.2408 13.1875 13.6893 13.1875 15.1846V20.8471H9.63433V9.39082H13.0468V10.9564H13.0937C13.5671 10.0564 14.7296 9.10488 16.4593 9.10488C20.064 9.10488 20.7296 11.4768 20.7296 14.5611V20.8471Z" fill="white"/>
</g>
<defs>
<clipPath id="clip0_450_4256">
<rect width="24" height="24" fill="white" transform="translate(0.278076 0.395508)"/>
</clipPath>
</defs>
</svg>
