<svg width="31" height="31" viewBox="0 0 31 31" fill="none" xmlns="http://www.w3.org/2000/svg">
<rect x="1.16003" y="1.39551" width="29" height="29" rx="14.5" stroke="white"/>
<path d="M15.1913 21.1611C11.7694 16.2393 11.16 15.7236 11.16 13.8955C11.16 11.4111 13.1522 9.39551 15.66 9.39551C18.1444 9.39551 20.16 11.4111 20.16 13.8955C20.16 15.7236 19.5272 16.2393 16.1053 21.1611C15.8944 21.4893 15.4022 21.4893 15.1913 21.1611ZM15.66 15.7705C16.6913 15.7705 17.535 14.9502 17.535 13.8955C17.535 12.8643 16.6913 12.0205 15.66 12.0205C14.6053 12.0205 13.785 12.8643 13.785 13.8955C13.785 14.9502 14.6053 15.7705 15.66 15.7705Z" fill="white"/>
</svg>
