<svg width="31" height="31" viewBox="0 0 31 31" fill="none" xmlns="http://www.w3.org/2000/svg">
<rect x="1.16003" y="1.39551" width="29" height="29" rx="14.5" stroke="white"/>
<path d="M21.4257 13.8721C21.5194 13.8018 21.66 13.8721 21.66 13.9893V18.7705C21.66 19.4033 21.1444 19.8955 20.535 19.8955H10.785C10.1522 19.8955 9.66003 19.4033 9.66003 18.7705V13.9893C9.66003 13.8721 9.77722 13.8018 9.87097 13.8721C10.41 14.2939 11.0897 14.8096 13.4803 16.5439C13.9725 16.8955 14.8163 17.6689 15.66 17.6689C16.4803 17.6689 17.3475 16.8955 17.8163 16.5439C20.2069 14.8096 20.8866 14.2939 21.4257 13.8721ZM15.66 16.8955C15.0975 16.9189 14.3241 16.2158 13.9257 15.9346C10.8085 13.6846 10.5741 13.4736 9.87097 12.9111C9.73035 12.8174 9.66003 12.6533 9.66003 12.4658V12.0205C9.66003 11.4111 10.1522 10.8955 10.785 10.8955H20.535C21.1444 10.8955 21.66 11.4111 21.66 12.0205V12.4658C21.66 12.6533 21.5663 12.8174 21.4257 12.9111C20.7225 13.4736 20.4882 13.6846 17.371 15.9346C16.9725 16.2158 16.1991 16.9189 15.66 16.8955Z" fill="white"/>
</svg>
