<svg width="50" height="50" viewBox="0 0 50 50" fill="none" xmlns="http://www.w3.org/2000/svg">
<path fill-rule="evenodd" clip-rule="evenodd" d="M18.4243 6H41.4033C41.8415 6 42.24 6.18238 42.5311 6.47295V6.47604C42.8192 6.76971 43 7.17156 43 7.6136V29.8083C43 30.2535 42.8192 30.6553 42.5311 30.949C42.24 31.2427 41.8415 31.4219 41.4002 31.4219H33.337C33.3309 30.9304 33.3033 30.442 33.2543 29.9629H41.4064C41.4462 29.9629 41.486 29.9444 41.5136 29.9165C41.5412 29.8887 41.5596 29.8485 41.5596 29.8083V11.7867C41.5106 11.796 41.4585 11.7991 41.4064 11.7991H18.4243C18.3722 11.7991 18.3201 11.7929 18.271 11.7867V16.4111C17.7837 16.4111 17.2995 16.4359 16.8245 16.4822V7.6136C16.8245 7.16847 17.0053 6.76352 17.2934 6.47295C17.3118 6.4544 17.3271 6.43895 17.3455 6.42349C17.6305 6.16074 18.0105 6 18.4243 6ZM27.7869 37.0046C27.8267 36.9335 27.8666 36.8563 27.9095 36.779L27.9125 36.7759C27.9616 36.6832 28.0075 36.5904 28.0535 36.5008C28.1056 36.3988 28.1546 36.2937 28.2037 36.1855C28.2558 36.0742 28.3017 35.9691 28.3477 35.864L28.3661 35.83C28.4335 35.6662 28.4979 35.5054 28.5561 35.3416C28.6143 35.1777 28.6726 35.0108 28.7247 34.8408V34.8377C28.7768 34.6708 28.8227 34.5008 28.8657 34.3277C28.9086 34.1546 28.9484 33.9784 28.9821 33.8022C29.0097 33.66 29.0342 33.524 29.0557 33.3879C29.0771 33.2519 29.0955 33.1128 29.1139 32.9706V32.9675C29.1292 32.8439 29.1415 32.7172 29.1537 32.5873C29.1629 32.4853 29.1691 32.3833 29.1752 32.2844H26.1626C26.1442 32.6801 26.0982 33.0757 26.0339 33.4652C25.9634 33.8825 25.8653 34.2998 25.7397 34.711C25.6171 35.1159 25.47 35.5209 25.3014 35.9227C25.1482 36.2844 24.9735 36.6461 24.7774 37.0077L27.7869 37.0046ZM26.8736 38.408H23.9192C23.671 38.7666 23.4013 39.1252 23.1163 39.4776C22.819 39.8424 22.5003 40.2102 22.1601 40.575C21.8475 40.9119 21.5135 41.2488 21.158 41.5858C20.8699 41.8609 20.5695 42.136 20.26 42.408L20.5082 42.3617C20.6799 42.3277 20.8515 42.2875 21.0262 42.2411C21.2009 42.1978 21.3725 42.1484 21.541 42.0958C21.7096 42.0433 21.8782 41.9845 22.0467 41.9227C22.2153 41.8609 22.3808 41.7929 22.5432 41.7218C22.7118 41.6476 22.8772 41.5734 23.0366 41.4961C23.196 41.4189 23.3553 41.3354 23.5147 41.2488C23.671 41.1623 23.8273 41.0757 23.9744 40.983C24.1246 40.8903 24.2747 40.7975 24.4157 40.6986C24.5598 40.5997 24.7038 40.5008 24.8417 40.3957C24.9796 40.2906 25.1175 40.1855 25.2493 40.0742C25.3811 39.966 25.5129 39.8516 25.6416 39.7311C25.7703 39.6136 25.896 39.493 26.0186 39.3663C26.1136 39.2674 26.2086 39.1716 26.3005 39.0726C26.3924 38.9737 26.4813 38.8748 26.5671 38.7728C26.6376 38.6924 26.705 38.609 26.7725 38.5255L26.8736 38.408ZM16.328 42.408C16.0154 42.136 15.7151 41.8609 15.427 41.5858C15.0745 41.2488 14.7405 40.9119 14.4279 40.575C14.0877 40.2102 13.769 39.8454 13.4717 39.4776C13.1836 39.1221 12.917 38.7666 12.6688 38.408H9.72053L9.8186 38.5317C9.88603 38.6151 9.95651 38.6986 10.0239 38.779C10.1986 38.9799 10.3825 39.1777 10.5725 39.3694L10.5756 39.3756C10.6982 39.4992 10.8238 39.6198 10.9525 39.7372C11.0813 39.8547 11.213 39.9691 11.3448 40.0773C11.4766 40.1886 11.6145 40.2937 11.7524 40.3988C11.8934 40.5039 12.0344 40.6028 12.1784 40.7017C12.3194 40.7975 12.4696 40.8934 12.6228 40.9861C12.773 41.0788 12.9262 41.1654 13.0764 41.2488C13.2357 41.3354 13.3951 41.4189 13.5575 41.4961C13.7169 41.5734 13.8824 41.6476 14.0509 41.7218C14.0663 41.728 14.0724 41.7342 14.0877 41.7434C14.2501 41.8114 14.4095 41.8733 14.5719 41.9351C14.7344 41.9938 14.8999 42.0526 15.0684 42.1051H15.0715C15.237 42.1577 15.4055 42.204 15.5772 42.2473C15.7488 42.2906 15.9235 42.3308 16.0982 42.3648L16.328 42.408ZM8.79193 37.0108H11.8015C11.6053 36.6461 11.4306 36.2844 11.2743 35.9196C11.1027 35.5147 10.9556 35.1097 10.8361 34.7048C10.7135 34.2906 10.6154 33.8764 10.5449 33.459C10.4775 33.0696 10.4346 32.6801 10.4162 32.2875H7.40669C7.41282 32.3864 7.42202 32.4884 7.42815 32.5904C7.4404 32.7202 7.45266 32.8501 7.46799 32.9737C7.48637 33.119 7.50476 33.2581 7.52622 33.391C7.54767 33.524 7.57219 33.6631 7.59977 33.8053L7.60283 33.8176C7.63654 33.9907 7.67639 34.1638 7.71929 34.34C7.7622 34.5162 7.81123 34.6893 7.86333 34.8594C7.91543 35.0294 7.97366 35.1994 8.03495 35.3694C8.09625 35.5394 8.16367 35.7063 8.23416 35.8702L8.23722 35.8764C8.28013 35.9784 8.3261 36.0835 8.37513 36.1886L8.3782 36.1917C8.42417 36.2906 8.4732 36.3926 8.52224 36.4977C8.57127 36.5966 8.61724 36.6893 8.66628 36.7821C8.70919 36.8563 8.74903 36.9335 8.79193 37.0108ZM7.40669 30.8903H10.4469C10.4806 30.5039 10.5388 30.1175 10.6185 29.728C10.7043 29.3138 10.8146 28.8995 10.9495 28.4853L10.9525 28.4791C11.0843 28.0742 11.2437 27.6692 11.4245 27.2674C11.59 26.8995 11.7739 26.5317 11.9792 26.1638H8.79193C8.74903 26.2411 8.70612 26.3215 8.66628 26.3957C8.61724 26.4853 8.57127 26.5811 8.52224 26.6801L8.51918 26.6832C8.46708 26.7852 8.4211 26.8872 8.37207 26.9892C8.32303 27.0943 8.27706 27.1994 8.23416 27.3045L8.22496 27.323L8.21271 27.3416C8.14528 27.5023 8.08399 27.6662 8.0227 27.83C7.96447 27.9969 7.90624 28.1638 7.85414 28.3308C7.80204 28.5008 7.753 28.6708 7.7101 28.847C7.66719 29.0201 7.62735 29.1963 7.59364 29.3725C7.56606 29.5147 7.54154 29.6538 7.52009 29.7867C7.49863 29.9227 7.47718 30.0618 7.46186 30.204C7.44653 30.3308 7.43427 30.4575 7.42202 30.5873C7.41895 30.6893 7.40976 30.7913 7.40669 30.8903ZM9.70827 24.7697H12.8496C13.0978 24.4142 13.3614 24.0618 13.6433 23.7063C13.9345 23.3416 14.2471 22.9768 14.575 22.609C14.8815 22.2689 15.2094 21.9289 15.5526 21.5858C15.8346 21.3045 16.1319 21.0201 16.4383 20.7388L16.3096 20.7604L16.089 20.8037C15.9173 20.8377 15.7426 20.8779 15.568 20.9243C15.3933 20.9675 15.2217 21.017 15.05 21.0696C14.8815 21.1221 14.7129 21.1808 14.5444 21.2427C14.3758 21.3045 14.2103 21.3725 14.0479 21.4436C13.8763 21.5178 13.7138 21.5951 13.5545 21.6723C13.3951 21.7496 13.2357 21.8331 13.0794 21.9165C12.9201 22.0031 12.7668 22.0927 12.6167 22.1824C12.4665 22.272 12.3194 22.3679 12.1784 22.4637C12.0313 22.5626 11.8903 22.6646 11.7524 22.7666C11.6114 22.8717 11.4766 22.9768 11.3448 23.0881C11.213 23.1963 11.0813 23.3107 10.9525 23.4312C10.8269 23.5487 10.7012 23.6692 10.5756 23.796L10.5695 23.7991C10.4744 23.8949 10.3825 23.9907 10.2936 24.0866C10.2017 24.1855 10.1128 24.2844 10.027 24.3864C9.95651 24.4668 9.88603 24.5502 9.8186 24.6368L9.70827 24.7697ZM20.1527 20.7512C20.4592 21.0325 20.7534 21.3138 21.0354 21.5951C21.3786 21.9351 21.7004 22.2751 22.0069 22.6121C22.3379 22.9768 22.6474 23.3416 22.9385 23.7094C23.2205 24.0649 23.4841 24.4173 23.7292 24.7728H26.8644L26.7663 24.6461C26.6989 24.5626 26.6315 24.4822 26.561 24.3988C26.4752 24.2998 26.3863 24.1978 26.2944 24.0989C26.2055 24.0031 26.1136 23.9073 26.0124 23.8053C25.8868 23.6785 25.7611 23.5549 25.6324 23.4405C25.5037 23.3199 25.3719 23.2087 25.2401 23.1005C25.1083 22.9892 24.9704 22.8841 24.8325 22.779C24.6915 22.6739 24.5506 22.575 24.4065 22.476C24.2625 22.3802 24.1154 22.2844 23.9652 22.1917C23.815 22.0989 23.6618 22.0124 23.5055 21.9258C23.3492 21.8393 23.1898 21.7589 23.0305 21.6816C22.8711 21.6043 22.7056 21.5301 22.534 21.456C22.5187 21.4498 22.5125 21.4436 22.4972 21.4343C22.3348 21.3663 22.1724 21.3014 22.013 21.2427C21.8506 21.1839 21.6851 21.1252 21.5165 21.0726H21.5135C21.348 21.0201 21.1763 20.9737 21.0078 20.9274C20.8362 20.8841 20.6645 20.8439 20.4868 20.8099L20.2661 20.7666L20.1527 20.7512ZM27.7869 26.1638H24.6057C24.8111 26.5317 24.9949 26.8995 25.1574 27.2643C25.3382 27.6692 25.4976 28.0773 25.6293 28.4822C25.7642 28.8964 25.8776 29.3107 25.9603 29.7249C26.04 30.1144 26.0982 30.5008 26.1319 30.8872H29.1691C29.1629 30.7883 29.1537 30.6862 29.1476 30.5842C29.1353 30.4544 29.1231 30.3277 29.1078 30.2009C29.0894 30.0556 29.071 29.9165 29.0495 29.7836C29.0281 29.6507 29.0036 29.5116 28.976 29.3694L28.9729 29.357C28.9392 29.1839 28.8994 29.0108 28.8534 28.8346C28.8105 28.6584 28.7614 28.4853 28.7094 28.3153C28.6572 28.1453 28.599 27.9753 28.5377 27.8053C28.4764 27.6352 28.409 27.4714 28.3416 27.3076L28.3385 27.2983C28.2956 27.1963 28.2496 27.0912 28.2006 26.9861L28.1975 26.983C28.1546 26.8872 28.1056 26.7852 28.0535 26.677C28.0045 26.575 27.9554 26.4822 27.9095 26.3957C27.8758 26.3246 27.8328 26.2442 27.7869 26.1638ZM15.8254 19.4374C16.0277 19.3972 16.2299 19.3601 16.4291 19.3292C16.6283 19.2983 16.8306 19.2736 17.039 19.2519C17.2474 19.2303 17.4558 19.2148 17.6642 19.2056C17.8757 19.1963 18.0871 19.1901 18.2955 19.1901C18.7154 19.1901 19.1322 19.2117 19.5459 19.2519C19.7543 19.2736 19.9566 19.2983 20.1589 19.3292C20.3581 19.3601 20.5603 19.3941 20.7657 19.4374C20.9618 19.4745 21.158 19.5209 21.351 19.5703C21.5441 19.6198 21.7372 19.6754 21.9303 19.7342C22.1203 19.7929 22.3103 19.8578 22.4972 19.9258C22.6811 19.9938 22.8681 20.068 23.0519 20.1484C23.0734 20.1546 23.0856 20.1607 23.1071 20.1731C23.2818 20.2504 23.4565 20.3308 23.6342 20.4173C23.815 20.5039 23.9897 20.5966 24.1583 20.6893L24.1614 20.6924C24.336 20.7883 24.5077 20.8872 24.6762 20.9892L24.6793 20.9923C24.8509 21.0974 25.0195 21.2025 25.1819 21.3138C25.3413 21.4219 25.5006 21.5332 25.6569 21.6476C25.8132 21.7651 25.9665 21.8856 26.1197 22.0093C26.2729 22.136 26.42 22.2658 26.5671 22.3988C26.7173 22.5348 26.8613 22.6739 26.9993 22.813L27.0054 22.8192C27.1433 22.9552 27.2781 23.0974 27.4069 23.2427C27.5386 23.3879 27.6643 23.5363 27.7899 23.6909C27.9125 23.8424 28.0321 23.9969 28.1485 24.1577C28.265 24.3184 28.3784 24.4822 28.4887 24.6461L28.4918 24.6492C28.6021 24.8161 28.7063 24.983 28.8074 25.1468C28.9086 25.3168 29.0097 25.49 29.1047 25.6692C29.1997 25.8424 29.2886 26.0216 29.3744 26.204C29.4633 26.3895 29.546 26.5719 29.6257 26.7573C29.7054 26.9459 29.782 27.1345 29.8525 27.3292C29.923 27.5209 29.9873 27.7156 30.0486 27.9134C30.1099 28.1113 30.1651 28.306 30.2141 28.5039C30.2631 28.6986 30.3091 28.8995 30.349 29.1036C30.3888 29.3076 30.4256 29.5085 30.4562 29.7125C30.4869 29.9134 30.5114 30.1206 30.5328 30.3308C30.5543 30.541 30.5696 30.7512 30.5788 30.9614C30.588 31.1747 30.5941 31.3879 30.5941 31.5981C30.5941 31.8083 30.588 32.0185 30.5788 32.2318C30.5696 32.442 30.5543 32.6492 30.5328 32.8594C30.5114 33.0696 30.4869 33.2767 30.4562 33.4776V33.4807C30.4256 33.6785 30.3919 33.8825 30.349 34.0866C30.3122 34.2844 30.2662 34.4822 30.2172 34.677C30.1681 34.8717 30.113 35.0665 30.0547 35.2612C29.9965 35.4529 29.9322 35.6445 29.8647 35.8331C29.7973 36.0185 29.7238 36.2071 29.6441 36.3895C29.638 36.4142 29.6288 36.4266 29.6165 36.4482C29.5399 36.6306 29.4571 36.8099 29.3713 36.9892C29.2855 37.1685 29.1936 37.3447 29.0986 37.5209C29.0005 37.7002 28.9024 37.8733 28.8044 38.0402C28.7032 38.2102 28.599 38.3771 28.4887 38.541C28.3814 38.7017 28.2711 38.8624 28.1546 39.0232C28.0382 39.1808 27.9187 39.3354 27.7961 39.4869L27.793 39.49C27.6674 39.6445 27.5386 39.796 27.4069 39.9413L27.4038 39.9444C27.2689 40.0927 27.1341 40.2349 26.9993 40.374L26.9901 40.3833C26.8521 40.5224 26.7142 40.6584 26.5733 40.7883C26.4292 40.9181 26.2821 41.0479 26.1319 41.1747C25.9818 41.2983 25.8285 41.4189 25.6692 41.5394C25.5098 41.6569 25.3505 41.7713 25.188 41.8794C25.0256 41.9907 24.8601 42.0989 24.6915 42.2009C24.523 42.3029 24.3483 42.4049 24.1705 42.5008C23.9959 42.5966 23.8181 42.6862 23.6404 42.7759C23.4595 42.8655 23.2757 42.949 23.0948 43.0263C22.9079 43.1066 22.7179 43.1839 22.5279 43.255C22.3379 43.3261 22.1448 43.391 21.9486 43.4529C21.7556 43.5147 21.5625 43.5672 21.3664 43.6167C21.1733 43.6662 20.9741 43.7125 20.7687 43.7527C20.5665 43.7929 20.3673 43.83 20.165 43.8609C19.9658 43.8918 19.7605 43.9165 19.5521 43.9382C19.1353 43.9784 18.7185 44 18.2955 44C18.0871 44 17.8787 43.9938 17.6673 43.9845C17.4589 43.9753 17.2535 43.9598 17.0451 43.9382C16.8367 43.9165 16.6314 43.8918 16.4322 43.8609C16.233 43.83 16.0307 43.796 15.8285 43.7527C15.6323 43.7156 15.4362 43.6692 15.2431 43.6198C15.05 43.5703 14.857 43.5147 14.6669 43.456C14.4769 43.3972 14.29 43.3323 14.103 43.2643C13.9161 43.1963 13.7291 43.119 13.5422 43.0417C13.5238 43.0325 13.5085 43.0294 13.4901 43.017C13.3154 42.9397 13.1377 42.8594 12.963 42.7728C12.7852 42.6862 12.6105 42.5966 12.442 42.5039C12.2673 42.408 12.0957 42.3091 11.9271 42.2071C11.7524 42.102 11.5808 41.9938 11.4153 41.8825C11.2559 41.7743 11.0966 41.6631 10.9403 41.5456C10.784 41.4281 10.6307 41.3076 10.4806 41.1839C10.3273 41.0572 10.1772 40.9274 10.0301 40.7913C9.8799 40.6522 9.73586 40.5162 9.60101 40.3802L9.59488 40.374C9.45697 40.2349 9.32212 40.0958 9.19341 39.9505C9.06469 39.8083 8.93597 39.6569 8.81032 39.5054C8.68773 39.3539 8.56515 39.1963 8.44869 39.0355C8.33223 38.8779 8.21884 38.7141 8.11157 38.5502C8.00124 38.3864 7.89704 38.2195 7.79284 38.0495C7.69171 37.8794 7.59057 37.7032 7.49557 37.524C7.40056 37.3478 7.31169 37.1716 7.22281 36.9892C7.13394 36.8068 7.05119 36.6213 6.97457 36.4389C6.89489 36.2504 6.81827 36.0587 6.74778 35.8671C6.6773 35.6754 6.61294 35.4807 6.55164 35.2828C6.49035 35.0881 6.43825 34.8934 6.38922 34.6955C6.34018 34.5008 6.29421 34.2998 6.25437 34.0927C6.21146 33.8887 6.17775 33.6847 6.14711 33.4807C6.11646 33.2798 6.09194 33.0757 6.07049 32.8655C6.04904 32.6553 6.03371 32.4451 6.02452 32.2349C6.00613 32.0093 6 31.7991 6 31.5889C6 31.1654 6.02145 30.745 6.06129 30.3277C6.08275 30.1175 6.10726 29.9134 6.13791 29.7094C6.16856 29.5085 6.20227 29.3045 6.24518 29.0974C6.28195 28.8995 6.32792 28.7048 6.37696 28.507C6.42599 28.3122 6.48116 28.1175 6.53939 27.9227C6.59761 27.7311 6.66197 27.5394 6.7294 27.3509C6.79682 27.1654 6.87037 26.9799 6.94699 26.7944C6.95312 26.7759 6.95618 26.7697 6.96538 26.7512L6.97457 26.7357C7.05119 26.5533 7.13394 26.3709 7.21975 26.1917C7.30556 26.0124 7.3975 25.8362 7.4925 25.66C7.58751 25.4807 7.68864 25.3076 7.78671 25.1406C7.88785 24.9706 7.99205 24.8037 8.10238 24.6399C8.20964 24.4791 8.31997 24.3184 8.43643 24.1607C8.55289 24.0031 8.67241 23.8485 8.795 23.6971C8.92065 23.5425 9.04937 23.3941 9.18115 23.2458C9.31599 23.0943 9.45391 22.949 9.59182 22.8099L9.59795 22.8037C9.73586 22.6646 9.87683 22.5286 10.0178 22.3957C10.1618 22.2628 10.309 22.136 10.4622 22.0093C10.6154 21.8825 10.7687 21.762 10.925 21.6476L10.9311 21.6445C11.0904 21.527 11.2498 21.4127 11.4092 21.3076C11.5716 21.1963 11.7371 21.0881 11.9057 20.9861C12.0742 20.8841 12.2489 20.7821 12.4267 20.6862C12.5983 20.5904 12.776 20.5008 12.9568 20.4142C13.1377 20.3246 13.3215 20.2411 13.5024 20.1638L13.5085 20.1607C13.6985 20.0773 13.8854 20.0031 14.0724 19.9351C14.2624 19.864 14.4555 19.7991 14.6516 19.7372C14.8447 19.6754 15.0408 19.6198 15.237 19.5703C15.43 19.5209 15.6293 19.4745 15.8315 19.4343L15.8254 19.4374ZM18.982 21.5611V24.7666H22.0161C21.8291 24.5255 21.6299 24.2844 21.4246 24.0402C21.1825 23.7558 20.925 23.4683 20.6553 23.1839C20.3826 22.8964 20.0945 22.6059 19.7942 22.3122C19.5337 22.068 19.264 21.8145 18.982 21.5611ZM18.982 26.1638V30.8903H24.7498C24.713 30.5255 24.6517 30.1607 24.5659 29.7929C24.4739 29.3972 24.3575 29.0015 24.2104 28.6028C24.0602 28.1947 23.8825 27.7836 23.6771 27.3725C23.4779 26.9706 23.2481 26.5688 22.9937 26.1669H18.982V26.1638ZM18.982 32.2875V37.0139H23.1776C23.4228 36.6182 23.6404 36.2257 23.8304 35.83C24.0265 35.4219 24.192 35.017 24.3268 34.609C24.4586 34.2102 24.5628 33.8083 24.6394 33.4096C24.7099 33.0355 24.7559 32.6646 24.7774 32.2906H18.982V32.2875ZM18.982 38.408V41.6723C19.2824 41.4189 19.5704 41.1623 19.8493 40.9057C20.1681 40.6121 20.4715 40.3184 20.7595 40.0278C21.0476 39.7342 21.3173 39.4436 21.5748 39.153C21.7923 38.9057 22.0007 38.6553 22.1969 38.408H18.982ZM17.5968 41.6723V38.4049H14.385C14.5811 38.6553 14.7895 38.9026 15.0041 39.1499C15.2584 39.4405 15.5281 39.7311 15.8162 40.0216C16.1043 40.3153 16.4077 40.6059 16.7264 40.8995C17.0022 41.1623 17.2934 41.4158 17.5968 41.6723ZM17.5968 37.0108V32.2875H11.8015C11.8229 32.6615 11.8719 33.0325 11.9424 33.4065C12.0191 33.8083 12.1233 34.2071 12.2581 34.609C12.3929 35.017 12.5584 35.425 12.7546 35.83C12.9446 36.2257 13.1591 36.6213 13.4043 37.0139H17.5968V37.0108ZM17.5968 30.8903V26.1638H13.582C13.3277 26.5657 13.1009 26.9675 12.8986 27.3694C12.6933 27.7805 12.5155 28.1917 12.3654 28.5997C12.2213 28.9985 12.1018 29.3941 12.0099 29.7898C11.924 30.1576 11.8658 30.5224 11.826 30.8872H17.5968V30.8903ZM17.5968 24.7697V21.5611C17.3148 21.8145 17.0451 22.0649 16.7877 22.3153C16.4843 22.6059 16.1962 22.8995 15.9235 23.187C15.6538 23.4714 15.3963 23.7589 15.1542 24.0433C14.9489 24.2844 14.7497 24.5286 14.5627 24.7697H17.5968ZM32.2368 25.8856H38.3447C38.6819 25.8856 38.9546 26.1855 38.9546 26.5533C38.9546 26.9212 38.6819 27.221 38.3447 27.221H32.7057C32.5709 26.7666 32.4146 26.3215 32.2368 25.8856ZM30.6861 22.983C30.7351 22.9675 30.7872 22.9614 30.8424 22.9614H38.3447C38.6819 22.9614 38.9546 23.2612 38.9546 23.6291C38.9546 23.9969 38.6819 24.2968 38.3447 24.2968H31.4921C31.2438 23.8454 30.9772 23.4065 30.6861 22.983ZM20.5726 13.4714H38.8841V20.7017H28.7768C26.5825 18.5502 23.7415 17.0696 20.5726 16.5811V13.4714ZM27.5019 8.08655C28.075 8.08655 28.5408 8.55641 28.5408 9.13447C28.5408 9.71252 28.075 10.1824 27.5019 10.1824C26.9288 10.1824 26.4629 9.71252 26.4629 9.13447C26.4629 8.55641 26.9288 8.08655 27.5019 8.08655ZM23.8671 8.08655C24.4402 8.08655 24.9061 8.55641 24.9061 9.13447C24.9061 9.71252 24.4402 10.1824 23.8671 10.1824C23.294 10.1824 22.8282 9.71252 22.8282 9.13447C22.8251 8.55641 23.291 8.08655 23.8671 8.08655ZM20.2294 8.08655C20.8025 8.08655 21.2683 8.55641 21.2683 9.13447C21.2683 9.71252 20.8025 10.1824 20.2294 10.1824C19.6563 10.1824 19.1904 9.71252 19.1904 9.13447C19.1904 8.55641 19.6563 8.08655 20.2294 8.08655Z" fill="#1A1F36"/>
</svg>
