<svg width="65" height="64" viewBox="0 0 65 64" fill="none" xmlns="http://www.w3.org/2000/svg">
<rect width="64" height="64" transform="translate(0.666626)" fill="white"/>
<path fill-rule="evenodd" clip-rule="evenodd" d="M41.2493 9.6416C43.989 9.6416 46.4716 10.7321 48.2697 12.4925C50.0713 14.2539 51.1841 16.6885 51.1841 19.3778C51.1841 22.0654 50.0713 24.5009 48.2741 26.2614L48.2048 26.325C46.4119 28.0485 43.9565 29.1132 41.2493 29.1132C38.5095 29.1132 36.0269 28.0227 34.2288 26.2614C32.4272 24.5009 31.3145 22.0654 31.3145 19.3778C31.3145 18.5212 31.4277 17.6896 31.64 16.8984C28.3229 17.0257 25.0926 18.1635 22.4591 20.1252C19.3472 22.4429 17.0709 25.9225 16.4768 30.2535L18.5452 30.2716C18.8067 30.2862 18.9927 30.3748 19.1006 30.5373C19.3946 30.9777 18.9795 31.4051 18.6987 31.7078C17.8931 32.5618 15.7975 35.2072 15.4026 35.6587C15.3409 35.734 15.2625 35.7946 15.1735 35.836C15.0844 35.8774 14.9869 35.8985 14.8884 35.8978C14.7897 35.897 14.6926 35.8742 14.6042 35.8311C14.5159 35.7881 14.4387 35.7259 14.3785 35.6493C13.9748 35.178 11.831 32.401 11.078 31.5573C10.8165 31.2649 10.4953 30.8633 10.7744 30.4625C10.8823 30.3026 11.071 30.2174 11.3334 30.2071L13.3913 30.226L13.4018 30.1185C14.0547 24.826 16.8155 20.5672 20.6118 17.7395C24.1413 15.1096 28.5703 13.7267 33.0318 13.9047C33.3837 13.3973 33.783 12.9251 34.2244 12.4925C36.0208 10.7321 38.5052 9.6416 41.2493 9.6416ZM31.454 47.4099C30.1719 49.7733 27.6349 51.3832 24.7126 51.3832C21.7877 51.3832 19.249 49.7715 17.9677 47.4039C18.1274 47.3016 18.31 47.207 18.4609 47.1261C19.4815 46.5689 21.8649 46.6101 22.6995 45.8731L23.7113 48.8453L23.8307 49.0612L24.2817 47.7995L23.9772 47.4727C23.7464 47.1433 23.8263 46.771 24.2519 46.703C24.3949 46.6807 24.5564 46.6944 24.7126 46.6944C24.8776 46.6944 25.0628 46.6798 25.2181 46.7133C25.6139 46.7993 25.6551 47.1743 25.4577 47.4727L25.1523 47.7995L25.5858 49.0079L25.6718 48.8453L26.8732 45.8731C27.6261 46.5388 30.2816 46.6712 31.1117 47.1261L31.454 47.4099ZM24.7109 34.17C27.4506 34.17 29.9332 35.2605 31.7313 37.021C33.5329 38.7823 34.6457 41.217 34.6457 43.9063C34.6457 45.2909 34.3499 46.6084 33.8181 47.8013C36.435 47.5174 38.9562 46.6058 41.1282 45.1645C44.218 43.1125 46.6041 39.9811 47.5484 36.0552C47.6194 35.7602 47.6818 35.4618 47.737 35.1625L45.5001 35.2098C45.2281 35.2021 45.0307 35.1161 44.9139 34.9518C44.5945 34.5029 45.0113 34.0453 45.2939 33.722C46.103 32.8104 48.1934 29.9981 48.5891 29.5165C48.651 29.4363 48.7306 29.3709 48.8219 29.3252C48.9133 29.2794 49.014 29.2546 49.1166 29.2525C49.3237 29.2482 49.5211 29.3376 49.6536 29.4941C50.0889 29.9715 52.4048 32.7889 53.2139 33.642C53.4947 33.9378 53.8422 34.3446 53.5649 34.7703C53.4569 34.9398 53.2648 35.0335 52.9918 35.0524L50.8497 35.098C50.7672 35.663 50.6619 36.21 50.5347 36.7372C49.4035 41.4363 46.5471 45.186 42.8438 47.6439C39.5652 49.8206 35.6189 50.9816 31.6251 50.8921C29.8367 52.5924 27.3979 53.6416 24.7109 53.6416C21.9711 53.6416 19.4885 52.5511 17.6904 50.7898C15.8888 49.0294 14.7761 46.5938 14.7761 43.9063C14.7761 41.217 15.8888 38.7823 17.686 37.021C19.4824 35.2605 21.9667 34.17 24.7109 34.17ZM24.7109 35.2967C29.5629 35.2967 33.4961 39.1512 33.4961 43.9063C33.4961 48.6604 29.5629 52.515 24.7109 52.515C19.8589 52.515 15.9256 48.6604 15.9256 43.9063C15.9256 39.1512 19.8589 35.2967 24.7109 35.2967ZM23.0514 45.3605C22.7162 45.0698 22.452 44.8583 22.3959 44.2528L22.359 44.2537C22.2765 44.2528 22.1967 44.2348 22.1221 44.1926C22.0027 44.1264 21.9176 44.0112 21.8606 43.8813C21.7403 43.6104 21.6447 42.8957 21.9483 42.6936L21.8851 42.5775C21.8737 42.433 21.8702 42.2593 21.8685 42.0761C21.8562 41.4062 21.8421 40.5935 21.2919 40.4301L21.055 40.3604L21.212 40.1721C21.6561 39.6337 22.1203 39.1616 22.5907 38.8012C23.1199 38.391 23.6587 38.1192 24.1861 38.0401C24.7275 37.9593 25.2541 38.0822 25.7385 38.4658C25.8815 38.5793 26.021 38.7161 26.1544 38.876C26.6731 38.9251 27.0952 39.1977 27.3971 39.5881C27.5778 39.8203 27.7147 40.0955 27.8016 40.3879C27.8894 40.6795 27.9271 40.9899 27.9104 41.2952C27.8815 41.8422 27.677 42.3763 27.2663 42.7659C27.3391 42.7685 27.4058 42.7839 27.4664 42.8158C27.6954 42.937 27.7033 43.1976 27.6428 43.4169C27.5831 43.6001 27.5085 43.8134 27.4365 43.9914C27.3488 44.2322 27.2224 44.2778 26.9767 44.2511C26.9644 44.848 26.6836 45.0114 26.3063 45.3605C26.0421 46.1208 23.3612 46.1036 23.0514 45.3605ZM47.9924 22.8815C46.7103 25.2448 44.1724 26.8548 41.2501 26.8548C38.3261 26.8548 35.7874 25.2431 34.5061 22.8755C34.6658 22.7723 34.8484 22.6785 34.9993 22.5977C36.019 22.0404 38.4025 22.0817 39.2379 21.3447L40.2497 24.3169L40.3682 24.5327L40.8201 23.2711L40.5148 22.9443C40.2848 22.6149 40.3647 22.2425 40.7894 22.1746C40.9334 22.1522 41.0948 22.166 41.251 22.166C41.416 22.166 41.6003 22.1514 41.7565 22.1849C42.1523 22.2709 42.1926 22.6459 41.9961 22.9443L41.6907 23.2711L42.1233 24.4786L42.2102 24.3169L43.4116 21.3447C44.1645 22.0103 46.82 22.1428 47.6502 22.5977L47.9924 22.8815ZM39.5898 20.8321C39.2546 20.5414 38.9904 20.3298 38.9343 19.7244L38.8974 19.7253C38.8149 19.7244 38.7351 19.7063 38.6605 19.6642C38.5403 19.598 38.456 19.4827 38.399 19.3529C38.2787 19.082 38.1831 18.3673 38.4867 18.1643L38.4235 18.0491C38.4113 17.9046 38.4086 17.7309 38.406 17.5477C38.3946 16.8778 38.3805 16.065 37.8303 15.9016L37.5934 15.8311L37.7505 15.6436C38.1936 15.1044 38.6587 14.6331 39.1291 14.2719C39.6583 13.8625 40.1971 13.5908 40.7236 13.5117C41.2659 13.4308 41.7916 13.5538 42.276 13.9374C42.4199 14.0509 42.5595 14.1876 42.6928 14.3476C43.2115 14.3966 43.6336 14.6692 43.9355 15.0597C44.1162 15.2919 44.2531 15.5671 44.34 15.8595C44.4269 16.1502 44.4655 16.4615 44.4488 16.7668C44.4199 17.3138 44.2154 17.8478 43.8047 18.2374C43.8767 18.24 43.9442 18.2555 44.0048 18.2873C44.2338 18.4077 44.2417 18.6683 44.1812 18.8885C44.1215 19.0716 44.0469 19.2841 43.975 19.463C43.8872 19.7029 43.7608 19.7493 43.5151 19.7227C43.5028 20.3195 43.222 20.4829 42.8447 20.8321C42.5805 21.5923 39.8996 21.5751 39.5898 20.8321ZM41.2493 10.7682C46.1013 10.7682 50.0345 14.6228 50.0345 19.3778C50.0345 24.132 46.1013 27.9865 41.2493 27.9865C36.3973 27.9865 32.4641 24.132 32.4641 19.3778C32.4641 14.6228 36.3973 10.7682 41.2493 10.7682Z" fill="#1A1F36"/>
</svg>
