<svg width="49" height="49" viewBox="0 0 49 49" fill="none" xmlns="http://www.w3.org/2000/svg">
<g clip-path="url(#clip0_450_4207)">
<path d="M19.0085 8.53565V27.2108C19.0085 40.6893 6.79922 40.0029 2.20837 40.507V39.8469C5.65425 39.5483 14.3001 37.7967 12.268 25.3358H2.20837V8.53565H19.0085ZM20.8835 6.66064H0.333374V27.2108H10.5899C11.1193 31.9699 9.91978 38.0499 0.333374 38.0499V42.4135C20.271 42.4135 20.8835 32.5217 20.8835 27.2108V6.66064ZM46.4584 8.53565V27.2108C46.4584 40.6893 34.2491 40.0029 29.6583 40.507V39.8469C33.1042 39.5483 41.75 37.7967 39.7179 25.3358H29.6583V8.53565H46.4584ZM48.3334 6.66064H27.7833V27.2108H38.0398C38.5691 31.97 37.3697 38.0499 27.7833 38.0499V42.4135C47.7209 42.4135 48.3334 32.5217 48.3334 27.2108V6.66064Z" fill="#1A1F36"/>
<path d="M0.333374 27.2108H10.5899C11.1193 31.9699 9.91978 38.0499 0.333374 38.0499V42.4135C20.271 42.4135 20.8835 32.5217 20.8835 27.2108V6.66064H0.333374V27.2108ZM2.20837 8.53565H19.0085V27.2108C19.0085 40.6893 6.79922 40.0029 2.20837 40.507V39.8469C5.65425 39.5483 14.3001 37.7967 12.268 25.3358H2.20837V8.53565ZM27.7833 6.66064V27.2108H38.0398C38.5691 31.97 37.3697 38.0499 27.7833 38.0499V42.4135C47.7209 42.4135 48.3334 32.5217 48.3334 27.2108V6.66064H27.7833ZM46.4584 27.2108C46.4584 40.6893 34.2491 40.0029 29.6583 40.507V39.8469C33.1042 39.5483 41.75 37.7967 39.7179 25.3358H29.6583V8.53565H46.4584V27.2108Z" fill="#1A1F36"/>
</g>
<defs>
<clipPath id="clip0_450_4207">
<rect width="48" height="48" fill="white" transform="translate(0.333374 0.537109)"/>
</clipPath>
</defs>
</svg>
