<svg width="50" height="50" viewBox="0 0 50 50" fill="none" xmlns="http://www.w3.org/2000/svg">
<rect width="50" height="50" fill="white"/>
<g clip-path="url(#clip0_508_4861)">
<path fill-rule="evenodd" clip-rule="evenodd" d="M31.1317 37.8742C32.2746 41.2362 37.0536 41.3632 38.1297 37.8742C40.7731 40.2537 44.9672 38.4758 45.5654 43.2581C45.4953 44.01 45.0708 44.4444 44.2287 44.5113H25.0294C24.1872 44.4444 23.7628 44.01 23.6926 43.2581C24.2607 38.7097 28.6286 40.1267 31.1317 37.8742ZM6.53853 18.471H36.1947V7.37253C36.1963 7.32855 36.1882 7.28476 36.1709 7.2443C36.1535 7.20385 36.1274 7.16775 36.0944 7.1386C36.065 7.10598 36.0289 7.08013 35.9885 7.06282C35.9481 7.04551 35.9044 7.03716 35.8605 7.03834H6.87272C6.82874 7.0367 6.78494 7.04485 6.74448 7.06219C6.70403 7.07952 6.66793 7.10562 6.63878 7.1386C6.60322 7.16555 6.57528 7.20129 6.55771 7.2423C6.54013 7.28332 6.53352 7.3282 6.53853 7.37253V18.471ZM36.1947 20.1821H6.53853V42.2053C6.53735 42.2493 6.5457 42.2929 6.56301 42.3333C6.58031 42.3737 6.60617 42.4098 6.63878 42.4393C6.66793 42.4723 6.70403 42.4984 6.74448 42.5157C6.78494 42.533 6.82874 42.5412 6.87272 42.5395L19.0975 42.5061C19.3634 42.5061 19.6184 42.6117 19.8064 42.7998C19.9944 42.9878 20.1 43.2428 20.1 43.5087C20.1 43.7746 19.9944 44.0296 19.8064 44.2176C19.6184 44.4056 19.3634 44.5113 19.0975 44.5113H6.87272C6.24496 44.5069 5.64436 44.2547 5.20176 43.8095C4.9786 43.5923 4.80146 43.3325 4.68089 43.0454C4.56031 42.7583 4.49878 42.4499 4.49996 42.1385V7.37253C4.49878 7.06116 4.56031 6.75275 4.68089 6.46567C4.80146 6.17859 4.9786 5.91873 5.20176 5.70158C5.41891 5.47842 5.67877 5.30128 5.96585 5.1807C6.25293 5.06013 6.56135 4.9986 6.87272 4.99977H35.8271C36.4549 5.00412 37.0555 5.25637 37.4981 5.70158C37.7212 5.91873 37.8984 6.17859 38.0189 6.46567C38.1395 6.75275 38.201 7.06116 38.1999 7.37253V21.6693C38.1999 21.9352 38.0942 22.1902 37.9062 22.3782C37.7182 22.5662 37.4632 22.6718 37.1973 22.6718C36.9314 22.6718 36.6764 22.5662 36.4884 22.3782C36.3003 22.1902 36.1947 21.9352 36.1947 21.6693V20.1821ZM15.428 9.93579H17.5568C17.5746 9.93482 17.5925 9.93762 17.6091 9.94399C17.6258 9.95037 17.6409 9.96018 17.6535 9.9728C17.6661 9.98541 17.6759 10.0005 17.6823 10.0172C17.6887 10.0338 17.6915 10.0517 17.6905 10.0695V17.5119C17.6915 17.5297 17.6887 17.5475 17.6823 17.5642C17.6759 17.5808 17.6661 17.596 17.6535 17.6086C17.6409 17.6212 17.6258 17.631 17.6091 17.6374C17.5925 17.6438 17.5746 17.6466 17.5568 17.6456H15.428C15.41 17.6471 15.3918 17.6446 15.3747 17.6385C15.3576 17.6323 15.3421 17.6226 15.3291 17.6099C15.3161 17.5972 15.306 17.5819 15.2994 17.565C15.2929 17.5481 15.29 17.53 15.291 17.5119V10.0695C15.29 10.0514 15.2929 10.0332 15.2994 10.0163C15.306 9.99943 15.3161 9.98413 15.3291 9.97147C15.3421 9.9588 15.3576 9.94906 15.3747 9.94291C15.3918 9.93675 15.41 9.93433 15.428 9.93579ZM20.2838 12.763H22.416C22.4338 12.7621 22.4516 12.7649 22.4683 12.7713C22.4849 12.7776 22.5 12.7874 22.5126 12.8001C22.5253 12.8127 22.5351 12.8278 22.5414 12.8444C22.5478 12.8611 22.5506 12.8789 22.5497 12.8967V17.4852C22.5506 17.503 22.5478 17.5208 22.5414 17.5375C22.5351 17.5541 22.5253 17.5692 22.5126 17.5818C22.5 17.5945 22.4849 17.6043 22.4683 17.6106C22.4516 17.617 22.4338 17.6198 22.416 17.6189H20.2838C20.266 17.6198 20.2482 17.617 20.2316 17.6106C20.2149 17.6043 20.1998 17.5945 20.1872 17.5818C20.1746 17.5692 20.1647 17.5541 20.1584 17.5375C20.152 17.5208 20.1492 17.503 20.1502 17.4852V12.8967C20.1525 12.862 20.1673 12.8294 20.1919 12.8048C20.2165 12.7802 20.2492 12.7654 20.2838 12.763ZM30.0021 12.763H32.1309C32.149 12.7616 32.1672 12.764 32.1843 12.7702C32.2013 12.7763 32.2169 12.7861 32.2298 12.7987C32.2428 12.8114 32.2529 12.8267 32.2595 12.8436C32.2661 12.8605 32.269 12.8786 32.268 12.8967V17.4852C32.269 17.5033 32.2661 17.5214 32.2595 17.5383C32.2529 17.5552 32.2428 17.5705 32.2298 17.5832C32.2169 17.5958 32.2013 17.6056 32.1843 17.6117C32.1672 17.6179 32.149 17.6203 32.1309 17.6189H30.0021C29.9843 17.6198 29.9665 17.617 29.9499 17.6106C29.9332 17.6043 29.9181 17.5945 29.9055 17.5818C29.8929 17.5692 29.883 17.5541 29.8767 17.5375C29.8703 17.5208 29.8675 17.503 29.8685 17.4852V12.8967C29.8708 12.862 29.8856 12.8294 29.9102 12.8048C29.9348 12.7802 29.9675 12.7654 30.0021 12.763ZM25.143 9.93579H27.2718C27.2899 9.93433 27.308 9.93675 27.3251 9.94291C27.3422 9.94906 27.3577 9.9588 27.3707 9.97147C27.3837 9.98413 27.3938 9.99943 27.4004 10.0163C27.4069 10.0332 27.4098 10.0514 27.4088 10.0695V17.5119C27.4098 17.53 27.4069 17.5481 27.4004 17.565C27.3938 17.5819 27.3837 17.5972 27.3707 17.6099C27.3577 17.6226 27.3422 17.6323 27.3251 17.6385C27.308 17.6446 27.2899 17.6471 27.2718 17.6456H25.143C25.1252 17.6466 25.1074 17.6438 25.0907 17.6374C25.0741 17.631 25.0589 17.6212 25.0463 17.6086C25.0337 17.596 25.0239 17.5808 25.0175 17.5642C25.0111 17.5475 25.0083 17.5297 25.0093 17.5119V10.0695C25.0083 10.0517 25.0111 10.0338 25.0175 10.0172C25.0239 10.0005 25.0337 9.98541 25.0463 9.9728C25.0589 9.96018 25.0741 9.95037 25.0907 9.94399C25.1074 9.93762 25.1252 9.93482 25.143 9.93579ZM10.5722 10.9584H12.701C12.7194 10.9569 12.7379 10.9594 12.7552 10.9657C12.7725 10.9721 12.7882 10.9821 12.8013 10.9952C12.8143 11.0082 12.8244 11.0239 12.8307 11.0413C12.8371 11.0586 12.8396 11.0771 12.838 11.0954V17.5119C12.8391 17.53 12.8362 17.5481 12.8296 17.565C12.823 17.5819 12.8129 17.5972 12.7999 17.6099C12.7869 17.6226 12.7714 17.6323 12.7543 17.6385C12.7373 17.6446 12.7191 17.6471 12.701 17.6456H10.5722C10.5544 17.6466 10.5366 17.6438 10.5199 17.6374C10.5033 17.631 10.4882 17.6212 10.4756 17.6086C10.4629 17.596 10.4531 17.5808 10.4468 17.5642C10.4404 17.5475 10.4376 17.5297 10.4385 17.5119V11.0954C10.4118 11.0119 10.492 10.9584 10.5722 10.9584ZM17.7908 32.3467L23.5188 32.4469C23.5205 33.451 23.2758 34.44 22.8062 35.3274C22.3366 36.2148 21.6564 36.9734 20.8252 37.5367L17.7908 32.33V32.3467ZM17.4766 30.5955L17.4098 23.9117V23.4672L17.8476 23.5006C18.3833 23.5378 18.914 23.6285 19.4316 23.7713C20.9686 24.2019 22.3304 25.1066 23.323 26.3566C24.3155 27.6066 24.8881 29.138 24.9592 30.7325L24.9926 31.1703H24.5515L17.9144 30.9698H17.5334L17.4666 30.5654L17.4766 30.5955ZM18.2854 30.1912L24.117 30.3582C23.9957 29.2415 23.6036 28.1712 22.9745 27.2405C22.3455 26.3098 21.4987 25.5468 20.5077 25.0179C19.895 24.7053 19.2414 24.4803 18.5661 24.3495C18.4525 24.3294 18.3355 24.3094 18.2319 24.2994L18.2987 30.1644L18.2854 30.1912ZM15.8625 31.7351L19.1309 37.4164C18.1358 37.9893 17.0075 38.29 15.8593 38.2883C14.7111 38.2866 13.5836 37.9824 12.5903 37.4065C11.597 36.8306 10.7729 36.0032 10.201 35.0076C9.62909 34.012 9.32949 32.8833 9.33237 31.7351C9.33009 30.0462 9.98159 28.422 11.1503 27.2028C12.3191 25.9836 13.9143 25.2641 15.6018 25.195L15.8625 31.7351ZM30.1358 31.7084C29.9924 31.7158 29.8533 31.7595 29.7314 31.8354C29.6696 31.8735 29.6206 31.9294 29.5911 31.9958C29.5555 32.0791 29.5395 32.1694 29.5443 32.2598C29.6095 32.7076 29.7865 33.1317 30.0589 33.493L31.1417 35.2141C31.5391 35.9073 32.0256 36.5454 32.5888 37.1123C33.1341 37.6431 33.8663 37.9384 34.6273 37.9344C35.0274 37.9437 35.4253 37.8732 35.7977 37.7269C36.1701 37.5805 36.5096 37.3614 36.7963 37.0822C37.378 36.4735 37.8779 35.7916 38.2834 35.0536L39.4999 33.0485C39.7472 32.487 39.8341 32.1428 39.7405 31.9757C39.6937 31.8822 39.5266 31.8487 39.2559 31.8621C39.0357 31.9184 38.804 31.9114 38.5875 31.8421L39.0788 30.4552C36.8497 30.4284 35.3258 30.0408 33.5245 28.8878C32.9297 28.5102 32.7525 28.0757 32.161 28.1192C31.7316 28.1948 31.3386 28.4083 31.0415 28.7274C30.7243 29.0892 30.5026 29.5246 30.3965 29.994L30.7574 31.7251C30.5561 31.7796 30.3438 31.7796 30.1425 31.7251L30.1358 31.7084ZM39.8274 31.2104C39.9462 31.2408 40.057 31.2966 40.1522 31.3739C40.2474 31.4512 40.3247 31.5482 40.3788 31.6583C40.5593 32.0259 40.4857 32.5706 40.1449 33.3493L40.1248 33.3927L38.8883 35.4112C38.4521 36.2079 37.9103 36.9419 37.2775 37.5935C36.9279 37.936 36.5133 38.2053 36.0583 38.3855C35.6032 38.5657 35.1167 38.6532 34.6273 38.6429C33.6897 38.6505 32.7864 38.2906 32.1109 37.6403C31.4977 37.0335 30.9694 36.3467 30.5402 35.5984L29.4607 33.8773C29.112 33.4126 28.8971 32.8613 28.8391 32.2832C28.8294 32.0812 28.8672 31.8798 28.9494 31.695C29.0368 31.5103 29.1732 31.3531 29.3438 31.2405C29.4327 31.1821 29.528 31.1339 29.6278 31.0968C29.5579 30.2543 29.5434 29.4081 29.5844 28.5636C29.6084 28.3265 29.652 28.0918 29.7147 27.8618C30.0159 26.8839 30.6667 26.0512 31.5428 25.5225C31.8585 25.327 32.1947 25.1668 32.5453 25.0446C34.624 24.2927 37.3777 24.7104 38.8515 26.2978C39.5041 27.0312 39.8789 27.9701 39.9109 28.9513L39.8407 31.2004L39.8274 31.2104Z" fill="#1A1F36"/>
</g>
<defs>
<clipPath id="clip0_508_4861">
<rect width="41.0655" height="39.5115" fill="white" transform="translate(4.50006 4.99976)"/>
</clipPath>
</defs>
</svg>
