<svg width="25" height="25" viewBox="0 0 25 25" fill="none" xmlns="http://www.w3.org/2000/svg">
<g clip-path="url(#clip0_450_4249)">
<path d="M7.82823 22.1462C16.8826 22.1462 21.8364 14.6429 21.8364 8.1381C21.8364 7.92716 21.8317 7.71154 21.8223 7.5006C22.786 6.8037 23.6176 5.94049 24.2781 4.95154C23.3806 5.35084 22.4277 5.61162 21.452 5.72498C22.4794 5.10915 23.2486 4.14171 23.6171 3.00201C22.6506 3.5748 21.5937 3.97885 20.4915 4.19685C19.7489 3.4078 18.7671 2.88536 17.6978 2.71029C16.6285 2.53523 15.5313 2.71729 14.5758 3.22834C13.6204 3.73938 12.8599 4.55095 12.4119 5.53755C11.964 6.52416 11.8535 7.63086 12.0976 8.68654C10.1406 8.58833 8.22601 8.07994 6.47806 7.19434C4.7301 6.30873 3.18777 5.06568 1.95104 3.54576C1.32248 4.62948 1.13013 5.91189 1.41311 7.13233C1.69608 8.35278 2.43314 9.41969 3.47448 10.1162C2.6927 10.0914 1.92805 9.88092 1.2437 9.50216V9.5631C1.243 10.7004 1.63617 11.8028 2.35639 12.683C3.0766 13.5632 4.0794 14.1668 5.19433 14.3912C4.47013 14.5894 3.71006 14.6182 2.97292 14.4756C3.28753 15.4537 3.89965 16.3091 4.72385 16.9226C5.54804 17.536 6.5432 17.8768 7.57042 17.8975C5.8265 19.2673 3.67225 20.0104 1.45464 20.0069C1.06136 20.0063 0.668475 19.9821 0.278076 19.9347C2.53093 21.38 5.15161 22.1476 7.82823 22.1462Z" fill="white"/>
</g>
<defs>
<clipPath id="clip0_450_4249">
<rect width="24" height="24" fill="white" transform="translate(0.278076 0.395508)"/>
</clipPath>
</defs>
</svg>
